<svg width="647" height="539" viewBox="0 0 647 539" fill="none" xmlns="http://www.w3.org/2000/svg">
<g filter="url(#filter0_f_3_79)">
<path d="M314 223C314 267.735 303.529 304 254.645 304C205.762 304 166.134 223 166.134 223C139.407 178.513 205.762 142 254.645 142C303.529 142 218.546 207.917 314 223Z" fill="url(#paint0_linear_3_79)" fill-opacity="0.7"/>
</g>
<g filter="url(#filter1_f_3_79)">
<path d="M497 213.601C497 251.33 497 314.995 438.889 281.645C401.175 281.645 329.093 233.041 329.093 195.313C313.561 143.675 359.667 127 397.381 127C435.095 127 497 175.873 497 213.601Z" fill="url(#paint1_linear_3_79)" fill-opacity="0.7"/>
</g>
<g filter="url(#filter2_f_3_79)">
<path d="M426.215 317.319C426.215 348.975 450.451 386.381 407.313 386.381C364.176 386.381 284.454 403.716 270 349.193C270 317.537 304.97 260 348.107 260C391.245 260 426.215 285.662 426.215 317.319Z" fill="url(#paint2_linear_3_79)" fill-opacity="0.7"/>
</g>
<defs>
<filter id="filter0_f_3_79" x="0" y="-18" width="474" height="482" filterUnits="userSpaceOnUse" color-interpolation-filters="sRGB">
<feFlood flood-opacity="0" result="BackgroundImageFix"/>
<feBlend mode="normal" in="SourceGraphic" in2="BackgroundImageFix" result="shape"/>
<feGaussianBlur stdDeviation="80" result="effect1_foregroundBlur_3_79"/>
</filter>
<filter id="filter1_f_3_79" x="176" y="-23" width="471" height="464" filterUnits="userSpaceOnUse" color-interpolation-filters="sRGB">
<feFlood flood-opacity="0" result="BackgroundImageFix"/>
<feBlend mode="normal" in="SourceGraphic" in2="BackgroundImageFix" result="shape"/>
<feGaussianBlur stdDeviation="75" result="effect1_foregroundBlur_3_79"/>
</filter>
<filter id="filter2_f_3_79" x="120" y="110" width="463" height="429" filterUnits="userSpaceOnUse" color-interpolation-filters="sRGB">
<feFlood flood-opacity="0" result="BackgroundImageFix"/>
<feBlend mode="normal" in="SourceGraphic" in2="BackgroundImageFix" result="shape"/>
<feGaussianBlur stdDeviation="75" result="effect1_foregroundBlur_3_79"/>
</filter>
<linearGradient id="paint0_linear_3_79" x1="237" y1="142" x2="237" y2="304" gradientUnits="userSpaceOnUse">
<stop stop-color="#C562E8" stop-opacity="0.49"/>
<stop offset="1" stop-color="#6077F2" stop-opacity="0.33"/>
</linearGradient>
<linearGradient id="paint1_linear_3_79" x1="411.5" y1="127" x2="411.5" y2="291" gradientUnits="userSpaceOnUse">
<stop stop-color="#F2557B" stop-opacity="0.3"/>
<stop offset="1" stop-color="#7B1295" stop-opacity="0.31"/>
</linearGradient>
<linearGradient id="paint2_linear_3_79" x1="314.455" y1="274.073" x2="403.246" y2="388.789" gradientUnits="userSpaceOnUse">
<stop stop-color="#2622EA" stop-opacity="0.4"/>
<stop offset="1" stop-color="#C51894" stop-opacity="0.18"/>
</linearGradient>
</defs>
</svg>
