<svg width="154" height="195" viewBox="0 0 154 195" fill="none" xmlns="http://www.w3.org/2000/svg">
<path d="M49.875 64.3125H99.5625C107.062 64.3125 113.562 65.1042 119.062 66.6875C124.562 68.2292 129.125 70.4792 132.75 73.4375C136.375 76.3958 139.062 80 140.812 84.25C142.604 88.5 143.5 93.3125 143.5 98.6875C143.5 102.312 143.062 105.771 142.188 109.062C141.312 112.312 139.958 115.312 138.125 118.062C136.333 120.812 134.062 123.271 131.312 125.438C128.562 127.562 125.333 129.333 121.625 130.75L142.875 162H118.625L100.25 134.25H99.6875L69.6875 134.188V162H49.875V64.3125ZM100.062 117.062C103.812 117.062 107.083 116.625 109.875 115.75C112.708 114.875 115.062 113.646 116.938 112.062C118.854 110.479 120.271 108.562 121.188 106.312C122.146 104.021 122.625 101.479 122.625 98.6875C122.625 93.2292 120.75 89.0208 117 86.0625C113.25 83.0625 107.604 81.5625 100.062 81.5625H69.6875V117.062H100.062Z" fill="#060606"/>
<path d="M45.875 59.3125H95.5625C103.062 59.3125 109.562 60.1042 115.062 61.6875C120.562 63.2292 125.125 65.4792 128.75 68.4375C132.375 71.3958 135.062 75 136.812 79.25C138.604 83.5 139.5 88.3125 139.5 93.6875C139.5 97.3125 139.062 100.771 138.188 104.062C137.312 107.312 135.958 110.312 134.125 113.062C132.333 115.812 130.062 118.271 127.312 120.438C124.562 122.562 121.333 124.333 117.625 125.75L138.875 157H114.625L96.25 129.25H95.6875L65.6875 129.188V157H45.875V59.3125ZM96.0625 112.062C99.8125 112.062 103.083 111.625 105.875 110.75C108.708 109.875 111.062 108.646 112.938 107.062C114.854 105.479 116.271 103.562 117.188 101.312C118.146 99.0208 118.625 96.4792 118.625 93.6875C118.625 88.2292 116.75 84.0208 113 81.0625C109.25 78.0625 103.604 76.5625 96.0625 76.5625H65.6875V112.062H96.0625Z" fill="white"/>
<path d="M17.875 34.3125H69.375C76.875 34.3125 83.375 35.125 88.875 36.75C94.375 38.375 98.9375 40.7292 102.562 43.8125C106.188 46.8542 108.875 50.5833 110.625 55C112.417 59.4167 113.312 64.3958 113.312 69.9375C113.312 75.1458 112.438 79.9583 110.688 84.375C108.938 88.7917 106.25 92.625 102.625 95.875C99.0417 99.0833 94.5 101.604 89 103.438C83.5 105.229 77 106.125 69.5 106.125L37.6875 106.062V132H17.875V34.3125ZM69.875 88.9375C73.625 88.9375 76.8958 88.5 79.6875 87.625C82.5208 86.7083 84.875 85.4375 86.75 83.8125C88.6667 82.1458 90.0833 80.1458 91 77.8125C91.9583 75.4375 92.4375 72.8125 92.4375 69.9375C92.4375 64.1458 90.5417 59.6458 86.75 56.4375C83 53.1875 77.375 51.5625 69.875 51.5625H37.6875V88.9375H69.875Z" fill="#060606"/>
<path d="M13.875 29.3125H65.375C72.875 29.3125 79.375 30.125 84.875 31.75C90.375 33.375 94.9375 35.7292 98.5625 38.8125C102.188 41.8542 104.875 45.5833 106.625 50C108.417 54.4167 109.312 59.3958 109.312 64.9375C109.312 70.1458 108.438 74.9583 106.688 79.375C104.938 83.7917 102.25 87.625 98.625 90.875C95.0417 94.0833 90.5 96.6042 85 98.4375C79.5 100.229 73 101.125 65.5 101.125L33.6875 101.062V127H13.875V29.3125ZM65.875 83.9375C69.625 83.9375 72.8958 83.5 75.6875 82.625C78.5208 81.7083 80.875 80.4375 82.75 78.8125C84.6667 77.1458 86.0833 75.1458 87 72.8125C87.9583 70.4375 88.4375 67.8125 88.4375 64.9375C88.4375 59.1458 86.5417 54.6458 82.75 51.4375C79 48.1875 73.375 46.5625 65.875 46.5625H33.6875V83.9375H65.875Z" fill="white"/>
</svg>
