<svg width="772" height="22" viewBox="0 0 772 22" fill="none" xmlns="http://www.w3.org/2000/svg">
<path d="M0.333333 11C0.333333 16.891 5.10896 21.6667 11 21.6667C16.891 21.6667 21.6667 16.891 21.6667 11C21.6667 5.10896 16.891 0.333333 11 0.333333C5.10896 0.333333 0.333333 5.10896 0.333333 11ZM250.333 11C250.333 16.891 255.109 21.6667 261 21.6667C266.891 21.6667 271.667 16.891 271.667 11C271.667 5.10896 266.891 0.333333 261 0.333333C255.109 0.333333 250.333 5.10896 250.333 11ZM11 13H261V9H11V13Z" fill="#EFEFEF"/>
<path d="M500.333 11C500.333 16.891 505.109 21.6667 511 21.6667C516.891 21.6667 521.667 16.891 521.667 11C521.667 5.10896 516.891 0.333333 511 0.333333C505.109 0.333333 500.333 5.10896 500.333 11ZM261 13H511V9H261V13Z" fill="#EFEFEF"/>
<path d="M750.333 11C750.333 16.891 755.109 21.6667 761 21.6667C766.891 21.6667 771.667 16.891 771.667 11C771.667 5.10896 766.891 0.333333 761 0.333333C755.109 0.333333 750.333 5.10896 750.333 11ZM511 13L761 13L761 9L511 9L511 13Z" fill="#EFEFEF"/>
<circle cx="761" cy="11" r="7" fill="#111111"/>
<circle cx="11" cy="11" r="7" fill="#111111"/>
<circle cx="261" cy="11" r="7" fill="#111111"/>
<circle cx="511" cy="11" r="7" fill="#111111"/>
</svg>
