<svg width="278" height="212" viewBox="0 0 278 212" fill="none" xmlns="http://www.w3.org/2000/svg">
<rect width="159.197" height="159.197" rx="46.5678" transform="matrix(0.866044 -0.499967 0.866044 0.499967 1.12671 131.737)" fill="#2E3340"/>
<rect x="8.06595" width="149.883" height="149.883" rx="41.911" transform="matrix(0.866044 -0.499967 0.866044 0.499967 2.20719 135.77)" stroke="url(#paint0_linear_2295_6)" stroke-opacity="0.33" stroke-width="9.31355"/>
<path d="M93.2003 117.246C86.0013 109.306 100.828 100.746 114.582 104.902L131.654 110.06C136.255 111.451 141.745 111.451 146.346 110.06L163.418 104.902C177.172 100.746 191.999 109.306 184.8 117.246L175.865 127.101C173.456 129.758 173.456 132.927 175.865 135.583L184.8 145.439C191.999 153.379 177.172 161.939 163.418 157.783L146.346 152.624C141.745 151.234 136.255 151.234 131.654 152.624L114.582 157.783C100.828 161.938 86.0013 153.379 93.2003 145.439L102.136 135.583C104.544 132.927 104.544 129.758 102.136 127.101L93.2003 117.246Z" fill="#F2F2F7"/>
<rect width="159.197" height="159.197" rx="46.5678" transform="matrix(0.866044 -0.499967 0.866044 0.499967 1.12646 126.139)" fill="#2E3340"/>
<rect x="8.06595" width="149.883" height="149.883" rx="41.911" transform="matrix(0.866044 -0.499967 0.866044 0.499967 2.20694 130.171)" stroke="url(#paint1_linear_2295_6)" stroke-opacity="0.33" stroke-width="9.31355"/>
<path d="M93.2003 111.647C86.0013 103.707 100.828 95.1475 114.582 99.3035L131.654 104.462C136.255 105.852 141.745 105.852 146.346 104.462L163.418 99.3035C177.172 95.1476 191.999 103.707 184.8 111.647L175.865 121.503C173.456 124.159 173.456 127.328 175.865 129.985L184.8 139.84C191.999 147.78 177.172 156.34 163.418 152.184L146.346 147.026C141.745 145.635 136.255 145.635 131.654 147.026L114.582 152.184C100.828 156.34 86.0013 147.78 93.2003 139.84L102.136 129.985C104.544 127.328 104.544 124.159 102.136 121.503L93.2003 111.647Z" fill="#F2F2F7"/>
<rect width="159.197" height="159.197" rx="46.5678" transform="matrix(0.866044 -0.499967 0.866044 0.499967 1.12671 120.538)" fill="#2E3340"/>
<rect x="8.06595" width="149.883" height="149.883" rx="41.911" transform="matrix(0.866044 -0.499967 0.866044 0.499967 2.20719 124.571)" stroke="url(#paint2_linear_2295_6)" stroke-opacity="0.33" stroke-width="9.31355"/>
<path d="M93.2003 106.047C86.0013 98.1071 100.828 89.5474 114.582 93.7034L131.654 98.8618C136.255 100.252 141.745 100.252 146.346 98.8618L163.418 93.7034C177.172 89.5475 191.999 98.1071 184.8 106.047L175.865 115.903C173.456 118.559 173.456 121.728 175.865 124.385L184.8 134.24C191.999 142.18 177.172 150.74 163.418 146.584L146.346 141.425C141.745 140.035 136.255 140.035 131.654 141.425L114.582 146.584C100.828 150.74 86.0013 142.18 93.2003 134.24L102.136 124.385C104.544 121.728 104.544 118.559 102.136 115.903L93.2003 106.047Z" fill="#F2F2F7"/>
<rect width="159.197" height="159.197" rx="46.5678" transform="matrix(0.866044 -0.499967 0.866044 0.499967 1.12646 114.938)" fill="#2E3340"/>
<rect x="8.06595" width="149.883" height="149.883" rx="41.911" transform="matrix(0.866044 -0.499967 0.866044 0.499967 2.20694 118.971)" stroke="url(#paint3_linear_2295_6)" stroke-opacity="0.33" stroke-width="9.31355"/>
<path d="M93.2003 100.448C86.0013 92.5075 100.828 83.9478 114.582 88.1038L131.654 93.2622C136.255 94.6526 141.745 94.6526 146.346 93.2622L163.418 88.1038C177.172 83.9479 191.999 92.5075 184.8 100.448L175.865 110.303C173.456 112.959 173.456 116.129 175.865 118.785L184.8 128.64C191.999 136.581 177.172 145.14 163.418 140.984L146.346 135.826C141.745 134.435 136.255 134.435 131.654 135.826L114.582 140.984C100.828 145.14 86.0013 136.581 93.2003 128.64L102.136 118.785C104.544 116.129 104.544 112.959 102.136 110.303L93.2003 100.448Z" fill="#F2F2F7"/>
<rect width="159.197" height="159.197" rx="46.5678" transform="matrix(0.866044 -0.499967 0.866044 0.499967 1.12646 109.341)" fill="#2E3340"/>
<rect x="8.06595" width="149.883" height="149.883" rx="41.911" transform="matrix(0.866044 -0.499967 0.866044 0.499967 2.20694 113.374)" stroke="url(#paint4_linear_2295_6)" stroke-opacity="0.33" stroke-width="9.31355"/>
<path d="M93.2003 94.85C86.0013 86.9098 100.828 78.3502 114.582 82.5062L131.654 87.6645C136.255 89.0549 141.745 89.0549 146.346 87.6645L163.418 82.5062C177.172 78.3502 191.999 86.9098 184.8 94.85L175.865 104.705C173.456 107.362 173.456 110.531 175.865 113.187L184.8 123.043C191.999 130.983 177.172 139.543 163.418 135.387L146.346 130.228C141.745 128.838 136.255 128.838 131.654 130.228L114.582 135.387C100.828 139.542 86.0013 130.983 93.2003 123.043L102.136 113.187C104.544 110.531 104.544 107.362 102.136 104.705L93.2003 94.85Z" fill="#F2F2F7"/>
<rect width="159.197" height="159.197" rx="46.5678" transform="matrix(0.866044 -0.499967 0.866044 0.499967 1.12646 103.743)" fill="#2E3340"/>
<rect x="8.06595" width="149.883" height="149.883" rx="41.911" transform="matrix(0.866044 -0.499967 0.866044 0.499967 2.20694 107.775)" stroke="url(#paint5_linear_2295_6)" stroke-opacity="0.33" stroke-width="9.31355"/>
<path d="M93.2003 89.2519C86.0013 81.3117 100.828 72.752 114.582 76.908L131.654 82.0664C136.255 83.4568 141.745 83.4568 146.346 82.0664L163.418 76.908C177.172 72.7521 191.999 81.3117 184.8 89.2519L175.865 99.1071C173.456 101.764 173.456 104.933 175.865 107.589L184.8 117.445C191.999 125.385 177.172 133.944 163.418 129.788L146.346 124.63C141.745 123.24 136.255 123.24 131.654 124.63L114.582 129.788C100.828 133.944 86.0013 125.385 93.2003 117.445L102.136 107.589C104.544 104.933 104.544 101.764 102.136 99.1071L93.2003 89.2519Z" fill="#F2F2F7"/>
<rect width="159.197" height="159.197" rx="46.5678" transform="matrix(0.866044 -0.499967 0.866044 0.499967 1.12646 98.145)" fill="#2E3340"/>
<rect x="8.06595" width="149.883" height="149.883" rx="41.911" transform="matrix(0.866044 -0.499967 0.866044 0.499967 2.20694 102.178)" stroke="url(#paint6_linear_2295_6)" stroke-opacity="0.33" stroke-width="9.31355"/>
<path d="M93.2003 83.6532C86.0013 75.713 100.828 67.1534 114.582 71.3094L131.654 76.4677C136.255 77.8581 141.745 77.8581 146.346 76.4677L163.418 71.3094C177.172 67.1534 191.999 75.7131 184.8 83.6532L175.865 93.5085C173.456 96.1649 173.456 99.3342 175.865 101.991L184.8 111.846C191.999 119.786 177.172 128.346 163.418 124.19L146.346 119.031C141.745 117.641 136.255 117.641 131.654 119.031L114.582 124.19C100.828 128.346 86.0013 119.786 93.2003 111.846L102.136 101.991C104.544 99.3342 104.544 96.1649 102.136 93.5085L93.2003 83.6532Z" fill="#F2F2F7"/>
<rect width="159.197" height="159.197" rx="46.5678" transform="matrix(0.866044 -0.499967 0.866044 0.499967 1.12646 92.5435)" fill="#2E3340"/>
<rect x="8.06595" width="149.883" height="149.883" rx="41.911" transform="matrix(0.866044 -0.499967 0.866044 0.499967 2.20694 96.5762)" stroke="url(#paint7_linear_2295_6)" stroke-opacity="0.33" stroke-width="9.31355"/>
<path d="M93.2003 78.0521C86.0013 70.112 100.828 61.5523 114.582 65.7083L131.654 70.8667C136.255 72.2571 141.745 72.2571 146.346 70.8667L163.418 65.7083C177.172 61.5523 191.999 70.112 184.8 78.0522L175.865 87.9074C173.456 90.5639 173.456 93.7331 175.865 96.3896L184.8 106.245C191.999 114.185 177.172 122.745 163.418 118.589L146.346 113.43C141.745 112.04 136.255 112.04 131.654 113.43L114.582 118.589C100.828 122.745 86.0013 114.185 93.2003 106.245L102.136 96.3896C104.544 93.7331 104.544 90.5639 102.136 87.9074L93.2003 78.0521Z" fill="#F2F2F7"/>
<rect width="159.197" height="159.197" rx="46.5678" transform="matrix(0.866044 -0.499967 0.866044 0.499967 1.12646 86.9453)" fill="#2E3340"/>
<rect x="8.06595" width="149.883" height="149.883" rx="41.911" transform="matrix(0.866044 -0.499967 0.866044 0.499967 2.20694 90.978)" stroke="url(#paint8_linear_2295_6)" stroke-opacity="0.33" stroke-width="9.31355"/>
<path d="M93.2003 72.454C86.0013 64.5138 100.828 55.9542 114.582 60.1102L131.654 65.2685C136.255 66.6589 141.745 66.6589 146.346 65.2685L163.418 60.1102C177.172 55.9542 191.999 64.5138 184.8 72.454L175.865 82.3093C173.456 84.9657 173.456 88.135 175.865 90.7914L184.8 100.647C191.999 108.587 177.172 117.147 163.418 112.991L146.346 107.832C141.745 106.442 136.255 106.442 131.654 107.832L114.582 112.991C100.828 117.147 86.0013 108.587 93.2003 100.647L102.136 90.7914C104.544 88.135 104.544 84.9657 102.136 82.3093L93.2003 72.454Z" fill="#F2F2F7"/>
<rect width="159.197" height="159.197" rx="46.5678" transform="matrix(0.866044 -0.499967 0.866044 0.499967 1.12622 81.3472)" fill="#2E3340"/>
<rect x="8.06595" width="149.883" height="149.883" rx="41.911" transform="matrix(0.866044 -0.499967 0.866044 0.499967 2.2067 85.3799)" stroke="url(#paint9_linear_2295_6)" stroke-opacity="0.33" stroke-width="9.31355"/>
<path d="M93.1998 66.8559C86.0008 58.9157 100.828 50.356 114.582 54.512L131.653 59.6704C136.255 61.0608 141.744 61.0608 146.346 59.6704L163.417 54.512C177.171 50.3561 191.998 58.9157 184.799 66.8559L175.864 76.7111C173.456 79.3676 173.456 82.5368 175.864 85.1933L184.799 95.0486C191.998 102.989 177.171 111.548 163.417 107.392L146.346 102.234C141.744 100.844 136.255 100.844 131.653 102.234L114.582 107.392C100.828 111.548 86.0008 102.989 93.1998 95.0485L102.135 85.1933C104.544 82.5368 104.544 79.3676 102.135 76.7111L93.1998 66.8559Z" fill="#F2F2F7"/>
<defs>
<linearGradient id="paint0_linear_2295_6" x1="79.5984" y1="-7.94795e-06" x2="164.993" y2="54.2432" gradientUnits="userSpaceOnUse">
<stop stop-color="#DBEAFE"/>
<stop offset="1" stop-color="#C7DFFF"/>
</linearGradient>
<linearGradient id="paint1_linear_2295_6" x1="79.5984" y1="-7.94795e-06" x2="164.993" y2="54.2432" gradientUnits="userSpaceOnUse">
<stop stop-color="#DBEAFE"/>
<stop offset="1" stop-color="#C7DFFF"/>
</linearGradient>
<linearGradient id="paint2_linear_2295_6" x1="79.5984" y1="-7.94795e-06" x2="164.993" y2="54.2432" gradientUnits="userSpaceOnUse">
<stop stop-color="#DBEAFE"/>
<stop offset="1" stop-color="#C7DFFF"/>
</linearGradient>
<linearGradient id="paint3_linear_2295_6" x1="79.5984" y1="-7.94795e-06" x2="164.993" y2="54.2432" gradientUnits="userSpaceOnUse">
<stop stop-color="#DBEAFE"/>
<stop offset="1" stop-color="#C7DFFF"/>
</linearGradient>
<linearGradient id="paint4_linear_2295_6" x1="79.5984" y1="-7.94795e-06" x2="164.993" y2="54.2432" gradientUnits="userSpaceOnUse">
<stop stop-color="#DBEAFE"/>
<stop offset="1" stop-color="#C7DFFF"/>
</linearGradient>
<linearGradient id="paint5_linear_2295_6" x1="79.5984" y1="-7.94795e-06" x2="164.993" y2="54.2432" gradientUnits="userSpaceOnUse">
<stop stop-color="#DBEAFE"/>
<stop offset="1" stop-color="#C7DFFF"/>
</linearGradient>
<linearGradient id="paint6_linear_2295_6" x1="79.5984" y1="-7.94795e-06" x2="164.993" y2="54.2432" gradientUnits="userSpaceOnUse">
<stop stop-color="#DBEAFE"/>
<stop offset="1" stop-color="#C7DFFF"/>
</linearGradient>
<linearGradient id="paint7_linear_2295_6" x1="79.5984" y1="-7.94795e-06" x2="164.993" y2="54.2432" gradientUnits="userSpaceOnUse">
<stop stop-color="#DBEAFE"/>
<stop offset="1" stop-color="#C7DFFF"/>
</linearGradient>
<linearGradient id="paint8_linear_2295_6" x1="79.5984" y1="-7.94795e-06" x2="164.993" y2="54.2432" gradientUnits="userSpaceOnUse">
<stop stop-color="#DBEAFE"/>
<stop offset="1" stop-color="#C7DFFF"/>
</linearGradient>
<linearGradient id="paint9_linear_2295_6" x1="79.5984" y1="-7.94795e-06" x2="164.993" y2="54.2432" gradientUnits="userSpaceOnUse">
<stop stop-color="#DBEAFE"/>
<stop offset="1" stop-color="#C7DFFF"/>
</linearGradient>
</defs>
</svg>
