<svg width="168" height="91" viewBox="0 0 168 91" fill="none" xmlns="http://www.w3.org/2000/svg">
<circle cx="153" cy="76" r="14.5" fill="#054129" stroke="#054129"/>
<circle cx="149" cy="76" r="14.5" fill="#F5F5F5" stroke="#054129"/>
<mask id="path-3-outside-1_241_3" maskUnits="userSpaceOnUse" x="10" y="18" width="122" height="73" fill="black">
<rect fill="white" x="10" y="18" width="122" height="73"/>
<path d="M102.176 19.472C107.552 19.472 112.331 20.5813 116.512 22.8C120.779 24.9333 124.107 28.2613 126.496 32.784C128.971 37.3067 130.208 43.152 130.208 50.32V90H105.888V54.288C105.888 49.3387 104.949 45.7547 103.072 43.536C101.195 41.232 98.6347 40.08 95.392 40.08C93.088 40.08 90.9973 40.6347 89.12 41.744C87.2427 42.8533 85.792 44.56 84.768 46.864C83.744 49.0827 83.232 51.984 83.232 55.568V90H58.912V54.288C58.912 49.3387 57.9733 45.7547 56.096 43.536C54.304 41.232 51.744 40.08 48.416 40.08C46.0267 40.08 43.8933 40.6347 42.016 41.744C40.224 42.8533 38.7733 44.56 37.664 46.864C36.64 49.0827 36.128 51.984 36.128 55.568V90H11.808V20.624H34.976V39.952L30.368 34.448C32.928 29.4987 36.4267 25.7867 40.864 23.312C45.3013 20.752 50.2507 19.472 55.712 19.472C61.9413 19.472 67.4027 21.0933 72.096 24.336C76.8747 27.4933 80.0747 32.4427 81.696 39.184L73.76 37.52C76.2347 31.888 79.9467 27.4933 84.896 24.336C89.9307 21.0933 95.6907 19.472 102.176 19.472Z"/>
</mask>
<path d="M102.176 19.472C107.552 19.472 112.331 20.5813 116.512 22.8C120.779 24.9333 124.107 28.2613 126.496 32.784C128.971 37.3067 130.208 43.152 130.208 50.32V90H105.888V54.288C105.888 49.3387 104.949 45.7547 103.072 43.536C101.195 41.232 98.6347 40.08 95.392 40.08C93.088 40.08 90.9973 40.6347 89.12 41.744C87.2427 42.8533 85.792 44.56 84.768 46.864C83.744 49.0827 83.232 51.984 83.232 55.568V90H58.912V54.288C58.912 49.3387 57.9733 45.7547 56.096 43.536C54.304 41.232 51.744 40.08 48.416 40.08C46.0267 40.08 43.8933 40.6347 42.016 41.744C40.224 42.8533 38.7733 44.56 37.664 46.864C36.64 49.0827 36.128 51.984 36.128 55.568V90H11.808V20.624H34.976V39.952L30.368 34.448C32.928 29.4987 36.4267 25.7867 40.864 23.312C45.3013 20.752 50.2507 19.472 55.712 19.472C61.9413 19.472 67.4027 21.0933 72.096 24.336C76.8747 27.4933 80.0747 32.4427 81.696 39.184L73.76 37.52C76.2347 31.888 79.9467 27.4933 84.896 24.336C89.9307 21.0933 95.6907 19.472 102.176 19.472Z" fill="#054129"/>
<path d="M116.512 22.8L116.043 23.6833L116.054 23.689L116.065 23.6944L116.512 22.8ZM126.496 32.784L125.612 33.2511L125.615 33.2576L125.619 33.264L126.496 32.784ZM130.208 90V91H131.208V90H130.208ZM105.888 90H104.888V91H105.888V90ZM103.072 43.536L102.297 44.1677L102.303 44.1749L102.309 44.1819L103.072 43.536ZM89.12 41.744L89.6287 42.6049L89.6287 42.6049L89.12 41.744ZM84.768 46.864L85.676 47.2831L85.6789 47.2766L85.6818 47.2701L84.768 46.864ZM83.232 90V91H84.232V90H83.232ZM58.912 90H57.912V91H58.912V90ZM56.096 43.536L55.3066 44.1499L55.3193 44.1662L55.3326 44.1819L56.096 43.536ZM42.016 41.744L41.5073 40.8831L41.4984 40.8883L41.4896 40.8937L42.016 41.744ZM37.664 46.864L36.763 46.4302L36.7595 46.4375L36.756 46.4449L37.664 46.864ZM36.128 90V91H37.128V90H36.128ZM11.808 90H10.808V91H11.808V90ZM11.808 20.624V19.624H10.808V20.624H11.808ZM34.976 20.624H35.976V19.624H34.976V20.624ZM34.976 39.952L34.2092 40.5939L35.976 42.7042V39.952H34.976ZM30.368 34.448L29.4798 33.9886L29.174 34.5797L29.6012 35.0899L30.368 34.448ZM40.864 23.312L41.3511 24.1854L41.3574 24.1818L41.3637 24.1782L40.864 23.312ZM72.096 24.336L71.5276 25.1587L71.5361 25.1646L71.5447 25.1703L72.096 24.336ZM81.696 39.184L81.4908 40.1627L83.0379 40.4871L82.6683 38.9502L81.696 39.184ZM73.76 37.52L72.8445 37.1177L72.3488 38.2458L73.5548 38.4987L73.76 37.52ZM84.896 24.336L85.4338 25.1791L85.4375 25.1767L84.896 24.336ZM102.176 20.472C107.411 20.472 112.025 21.5511 116.043 23.6833L116.981 21.9166C112.636 19.6115 107.693 18.472 102.176 18.472V20.472ZM116.065 23.6944C120.131 25.7275 123.313 28.8989 125.612 33.2511L127.38 32.3169C124.901 27.6238 121.426 24.1391 116.959 21.9056L116.065 23.6944ZM125.619 33.264C127.988 37.5932 129.208 43.2577 129.208 50.32H131.208C131.208 43.0463 129.954 37.0201 127.373 32.304L125.619 33.264ZM129.208 50.32V90H131.208V50.32H129.208ZM130.208 89H105.888V91H130.208V89ZM106.888 90V54.288H104.888V90H106.888ZM106.888 54.288C106.888 49.2543 105.941 45.3787 103.835 42.8901L102.309 44.1819C103.957 46.1306 104.888 49.4231 104.888 54.288H106.888ZM103.847 42.9043C101.761 40.3441 98.9041 39.08 95.392 39.08V41.08C98.3652 41.08 100.628 42.1199 102.297 44.1677L103.847 42.9043ZM95.392 39.08C92.9196 39.08 90.6515 39.6775 88.6113 40.8831L89.6287 42.6049C91.3432 41.5919 93.2564 41.08 95.392 41.08V39.08ZM88.6113 40.8831C86.528 42.1141 84.949 43.9945 83.8542 46.4579L85.6818 47.2701C86.635 45.1255 87.9573 43.5926 89.6287 42.6049L88.6113 40.8831ZM83.86 46.4449C82.7539 48.8416 82.232 51.9013 82.232 55.568H84.232C84.232 52.0667 84.7341 49.3237 85.676 47.2831L83.86 46.4449ZM82.232 55.568V90H84.232V55.568H82.232ZM83.232 89H58.912V91H83.232V89ZM59.912 90V54.288H57.912V90H59.912ZM59.912 54.288C59.912 49.2543 58.9652 45.3787 56.8594 42.8901L55.3326 44.1819C56.9815 46.1306 57.912 49.4231 57.912 54.288H59.912ZM56.8854 42.9221C54.8757 40.3382 52.0035 39.08 48.416 39.08V41.08C51.4845 41.08 53.7323 42.1258 55.3066 44.1499L56.8854 42.9221ZM48.416 39.08C45.8654 39.08 43.5532 39.6741 41.5073 40.8831L42.5247 42.6049C44.2335 41.5952 46.188 41.08 48.416 41.08V39.08ZM41.4896 40.8937C39.504 42.1229 37.9372 43.9914 36.763 46.4302L38.565 47.2978C39.6094 45.1286 40.944 43.5837 42.5424 42.5943L41.4896 40.8937ZM36.756 46.4449C35.6499 48.8416 35.128 51.9013 35.128 55.568H37.128C37.128 52.0667 37.6301 49.3237 38.572 47.2831L36.756 46.4449ZM35.128 55.568V90H37.128V55.568H35.128ZM36.128 89H11.808V91H36.128V89ZM12.808 90V20.624H10.808V90H12.808ZM11.808 21.624H34.976V19.624H11.808V21.624ZM33.976 20.624V39.952H35.976V20.624H33.976ZM35.7428 39.3101L31.1348 33.8061L29.6012 35.0899L34.2092 40.5939L35.7428 39.3101ZM31.2562 34.9074C33.7351 30.1149 37.1017 26.5552 41.3511 24.1854L40.3769 22.4386C35.7517 25.0181 32.1209 28.8824 29.4798 33.9886L31.2562 34.9074ZM41.3637 24.1782C45.639 21.7117 50.4141 20.472 55.712 20.472V18.472C50.0872 18.472 44.9636 19.7923 40.3643 22.4458L41.3637 24.1782ZM55.712 20.472C61.7578 20.472 67.0167 22.0421 71.5276 25.1587L72.6644 23.5133C67.7886 20.1445 62.1248 18.472 55.712 18.472V20.472ZM71.5447 25.1703C76.0694 28.1598 79.1484 32.868 80.7237 39.4178L82.6683 38.9502C81.0009 32.0173 77.68 26.8269 72.6473 23.5017L71.5447 25.1703ZM81.9012 38.2053L73.9652 36.5413L73.5548 38.4987L81.4908 40.1627L81.9012 38.2053ZM74.6755 37.9223C77.0747 32.4622 80.6594 28.2248 85.4338 25.1791L84.3582 23.4929C79.2339 26.7619 75.3947 31.3138 72.8445 37.1177L74.6755 37.9223ZM85.4375 25.1767C90.2973 22.0467 95.8661 20.472 102.176 20.472V18.472C95.5152 18.472 89.5641 20.14 84.3545 23.4953L85.4375 25.1767Z" fill="#054129" mask="url(#path-3-outside-1_241_3)"/>
<mask id="path-5-outside-2_241_3" maskUnits="userSpaceOnUse" x="6" y="18" width="122" height="73" fill="black">
<rect fill="white" x="6" y="18" width="122" height="73"/>
<path d="M98.176 19.472C103.552 19.472 108.331 20.5813 112.512 22.8C116.779 24.9333 120.107 28.2613 122.496 32.784C124.971 37.3067 126.208 43.152 126.208 50.32V90H101.888V54.288C101.888 49.3387 100.949 45.7547 99.072 43.536C97.1947 41.232 94.6347 40.08 91.392 40.08C89.088 40.08 86.9973 40.6347 85.12 41.744C83.2427 42.8533 81.792 44.56 80.768 46.864C79.744 49.0827 79.232 51.984 79.232 55.568V90H54.912V54.288C54.912 49.3387 53.9733 45.7547 52.096 43.536C50.304 41.232 47.744 40.08 44.416 40.08C42.0267 40.08 39.8933 40.6347 38.016 41.744C36.224 42.8533 34.7733 44.56 33.664 46.864C32.64 49.0827 32.128 51.984 32.128 55.568V90H7.808V20.624H30.976V39.952L26.368 34.448C28.928 29.4987 32.4267 25.7867 36.864 23.312C41.3013 20.752 46.2507 19.472 51.712 19.472C57.9413 19.472 63.4027 21.0933 68.096 24.336C72.8747 27.4933 76.0747 32.4427 77.696 39.184L69.76 37.52C72.2347 31.888 75.9467 27.4933 80.896 24.336C85.9307 21.0933 91.6907 19.472 98.176 19.472Z"/>
</mask>
<path d="M98.176 19.472C103.552 19.472 108.331 20.5813 112.512 22.8C116.779 24.9333 120.107 28.2613 122.496 32.784C124.971 37.3067 126.208 43.152 126.208 50.32V90H101.888V54.288C101.888 49.3387 100.949 45.7547 99.072 43.536C97.1947 41.232 94.6347 40.08 91.392 40.08C89.088 40.08 86.9973 40.6347 85.12 41.744C83.2427 42.8533 81.792 44.56 80.768 46.864C79.744 49.0827 79.232 51.984 79.232 55.568V90H54.912V54.288C54.912 49.3387 53.9733 45.7547 52.096 43.536C50.304 41.232 47.744 40.08 44.416 40.08C42.0267 40.08 39.8933 40.6347 38.016 41.744C36.224 42.8533 34.7733 44.56 33.664 46.864C32.64 49.0827 32.128 51.984 32.128 55.568V90H7.808V20.624H30.976V39.952L26.368 34.448C28.928 29.4987 32.4267 25.7867 36.864 23.312C41.3013 20.752 46.2507 19.472 51.712 19.472C57.9413 19.472 63.4027 21.0933 68.096 24.336C72.8747 27.4933 76.0747 32.4427 77.696 39.184L69.76 37.52C72.2347 31.888 75.9467 27.4933 80.896 24.336C85.9307 21.0933 91.6907 19.472 98.176 19.472Z" fill="#F5F5F5"/>
<path d="M112.512 22.8L112.043 23.6833L112.054 23.689L112.065 23.6944L112.512 22.8ZM122.496 32.784L121.612 33.2511L121.615 33.2576L121.619 33.264L122.496 32.784ZM126.208 90V91H127.208V90H126.208ZM101.888 90H100.888V91H101.888V90ZM99.072 43.536L98.2968 44.1677L98.3026 44.1749L98.3086 44.1819L99.072 43.536ZM85.12 41.744L85.6287 42.6049L85.6287 42.6049L85.12 41.744ZM80.768 46.864L81.676 47.2831L81.6789 47.2766L81.6818 47.2701L80.768 46.864ZM79.232 90V91H80.232V90H79.232ZM54.912 90H53.912V91H54.912V90ZM52.096 43.536L51.3066 44.1499L51.3193 44.1662L51.3326 44.1819L52.096 43.536ZM38.016 41.744L37.5073 40.8831L37.4984 40.8883L37.4896 40.8937L38.016 41.744ZM33.664 46.864L32.763 46.4302L32.7595 46.4375L32.756 46.4449L33.664 46.864ZM32.128 90V91H33.128V90H32.128ZM7.808 90H6.808V91H7.808V90ZM7.808 20.624V19.624H6.808V20.624H7.808ZM30.976 20.624H31.976V19.624H30.976V20.624ZM30.976 39.952L30.2092 40.5939L31.976 42.7042V39.952H30.976ZM26.368 34.448L25.4798 33.9886L25.174 34.5797L25.6012 35.0899L26.368 34.448ZM36.864 23.312L37.3511 24.1854L37.3574 24.1818L37.3637 24.1782L36.864 23.312ZM68.096 24.336L67.5276 25.1587L67.5361 25.1646L67.5447 25.1703L68.096 24.336ZM77.696 39.184L77.4908 40.1627L79.0379 40.4871L78.6683 38.9502L77.696 39.184ZM69.76 37.52L68.8445 37.1177L68.3488 38.2458L69.5548 38.4987L69.76 37.52ZM80.896 24.336L81.4338 25.1791L81.4375 25.1767L80.896 24.336ZM98.176 20.472C103.411 20.472 108.025 21.5511 112.043 23.6833L112.981 21.9166C108.636 19.6115 103.693 18.472 98.176 18.472V20.472ZM112.065 23.6944C116.131 25.7275 119.313 28.8989 121.612 33.2511L123.38 32.3169C120.901 27.6238 117.426 24.1391 112.959 21.9056L112.065 23.6944ZM121.619 33.264C123.988 37.5932 125.208 43.2577 125.208 50.32H127.208C127.208 43.0463 125.954 37.0201 123.373 32.304L121.619 33.264ZM125.208 50.32V90H127.208V50.32H125.208ZM126.208 89H101.888V91H126.208V89ZM102.888 90V54.288H100.888V90H102.888ZM102.888 54.288C102.888 49.2543 101.941 45.3787 99.8354 42.8901L98.3086 44.1819C99.9575 46.1306 100.888 49.4231 100.888 54.288H102.888ZM99.8472 42.9043C97.7611 40.3441 94.9041 39.08 91.392 39.08V41.08C94.3652 41.08 96.6282 42.1199 98.2968 44.1677L99.8472 42.9043ZM91.392 39.08C88.9196 39.08 86.6515 39.6775 84.6113 40.8831L85.6287 42.6049C87.3432 41.5919 89.2564 41.08 91.392 41.08V39.08ZM84.6113 40.8831C82.528 42.1141 80.949 43.9945 79.8542 46.4579L81.6818 47.2701C82.635 45.1255 83.9573 43.5926 85.6287 42.6049L84.6113 40.8831ZM79.86 46.4449C78.7539 48.8416 78.232 51.9013 78.232 55.568H80.232C80.232 52.0667 80.7341 49.3237 81.676 47.2831L79.86 46.4449ZM78.232 55.568V90H80.232V55.568H78.232ZM79.232 89H54.912V91H79.232V89ZM55.912 90V54.288H53.912V90H55.912ZM55.912 54.288C55.912 49.2543 54.9652 45.3787 52.8594 42.8901L51.3326 44.1819C52.9815 46.1306 53.912 49.4231 53.912 54.288H55.912ZM52.8854 42.9221C50.8757 40.3382 48.0035 39.08 44.416 39.08V41.08C47.4845 41.08 49.7323 42.1258 51.3066 44.1499L52.8854 42.9221ZM44.416 39.08C41.8654 39.08 39.5532 39.6741 37.5073 40.8831L38.5247 42.6049C40.2335 41.5952 42.188 41.08 44.416 41.08V39.08ZM37.4896 40.8937C35.504 42.1229 33.9372 43.9914 32.763 46.4302L34.565 47.2978C35.6094 45.1286 36.944 43.5837 38.5424 42.5943L37.4896 40.8937ZM32.756 46.4449C31.6499 48.8416 31.128 51.9013 31.128 55.568H33.128C33.128 52.0667 33.6301 49.3237 34.572 47.2831L32.756 46.4449ZM31.128 55.568V90H33.128V55.568H31.128ZM32.128 89H7.808V91H32.128V89ZM8.808 90V20.624H6.808V90H8.808ZM7.808 21.624H30.976V19.624H7.808V21.624ZM29.976 20.624V39.952H31.976V20.624H29.976ZM31.7428 39.3101L27.1348 33.8061L25.6012 35.0899L30.2092 40.5939L31.7428 39.3101ZM27.2562 34.9074C29.7351 30.1149 33.1017 26.5552 37.3511 24.1854L36.3769 22.4386C31.7517 25.0181 28.1209 28.8824 25.4798 33.9886L27.2562 34.9074ZM37.3637 24.1782C41.639 21.7117 46.4141 20.472 51.712 20.472V18.472C46.0872 18.472 40.9636 19.7923 36.3643 22.4458L37.3637 24.1782ZM51.712 20.472C57.7578 20.472 63.0167 22.0421 67.5276 25.1587L68.6644 23.5133C63.7886 20.1445 58.1248 18.472 51.712 18.472V20.472ZM67.5447 25.1703C72.0694 28.1598 75.1484 32.868 76.7237 39.4178L78.6683 38.9502C77.0009 32.0173 73.68 26.8269 68.6473 23.5017L67.5447 25.1703ZM77.9012 38.2053L69.9652 36.5413L69.5548 38.4987L77.4908 40.1627L77.9012 38.2053ZM70.6755 37.9223C73.0747 32.4622 76.6594 28.2248 81.4338 25.1791L80.3582 23.4929C75.2339 26.7619 71.3947 31.3138 68.8445 37.1177L70.6755 37.9223ZM81.4375 25.1767C86.2973 22.0467 91.8661 20.472 98.176 20.472V18.472C91.5152 18.472 85.5641 20.14 80.3545 23.4953L81.4375 25.1767Z" fill="#054129" mask="url(#path-5-outside-2_241_3)"/>
</svg>
