<svg width="20" height="20" viewBox="0 0 20 20" fill="none" xmlns="http://www.w3.org/2000/svg">
<path d="M19.8029 8.26959C19.7487 8.22709 19.2425 7.85001 18.1745 7.85001C17.8925 7.85126 17.6112 7.87501 17.3333 7.92126C17.1266 6.52376 15.992 5.86709 15.9395 5.83667L15.6529 5.67334L15.4641 5.94167C15.2279 6.30251 15.0191 6.67501 14.9179 7.09292C14.7266 7.89084 14.8429 8.64001 15.2537 9.28042C14.757 9.55334 13.9108 9.57751 13.75 9.58334H0.659129C0.314962 9.58376 0.0357955 9.85834 0.0337122 10.1975C0.0182955 11.3363 0.180796 12.5113 0.577879 13.5804C1.03163 14.7546 1.70705 15.6196 2.58538 16.1488C3.56955 16.7433 5.16871 17.0833 6.98163 17.0833C7.80038 17.0858 8.61788 17.0129 9.42288 16.865C10.542 16.6621 11.6191 16.2763 12.6091 15.7233C13.425 15.2571 14.1591 14.6642 14.7837 13.9671C15.8275 12.8013 16.4491 11.5033 16.9116 10.3496C16.9737 10.3496 17.0358 10.3496 17.0958 10.3496C18.2387 10.3496 18.9412 9.89834 19.3287 9.52042C19.5862 9.27917 19.7875 8.98542 19.9179 8.66001L20 8.42334L19.8029 8.26959Z" fill="#B3B3B3"/>
<path d="M3.33329 9.16668H2.08329C1.85329 9.16668 1.66663 8.98001 1.66663 8.75001V7.50001C1.66663 7.27001 1.85329 7.08334 2.08329 7.08334H3.33329C3.56329 7.08334 3.74996 7.27001 3.74996 7.50001V8.75001C3.74996 8.98001 3.56329 9.16668 3.33329 9.16668Z" fill="#B3B3B3"/>
<path d="M5.83329 9.16668H4.58329C4.35329 9.16668 4.16663 8.98001 4.16663 8.75001V7.50001C4.16663 7.27001 4.35329 7.08334 4.58329 7.08334H5.83329C6.06329 7.08334 6.24996 7.27001 6.24996 7.50001V8.75001C6.24996 8.98001 6.06329 9.16668 5.83329 9.16668Z" fill="#B3B3B3"/>
<path d="M8.33329 9.16668H7.08329C6.85329 9.16668 6.66663 8.98001 6.66663 8.75001V7.50001C6.66663 7.27001 6.85329 7.08334 7.08329 7.08334H8.33329C8.56329 7.08334 8.74996 7.27001 8.74996 7.50001V8.75001C8.74996 8.98001 8.56329 9.16668 8.33329 9.16668Z" fill="#B3B3B3"/>
<path d="M10.8333 9.16668H9.58329C9.35329 9.16668 9.16663 8.98001 9.16663 8.75001V7.50001C9.16663 7.27001 9.35329 7.08334 9.58329 7.08334H10.8333C11.0633 7.08334 11.25 7.27001 11.25 7.50001V8.75001C11.25 8.98001 11.0633 9.16668 10.8333 9.16668Z" fill="#B3B3B3"/>
<path d="M5.83329 6.66668H4.58329C4.35329 6.66668 4.16663 6.48001 4.16663 6.25001V5.00001C4.16663 4.77001 4.35329 4.58334 4.58329 4.58334H5.83329C6.06329 4.58334 6.24996 4.77001 6.24996 5.00001V6.25001C6.24996 6.48001 6.06329 6.66668 5.83329 6.66668Z" fill="#B3B3B3"/>
<path d="M8.33329 6.66668H7.08329C6.85329 6.66668 6.66663 6.48001 6.66663 6.25001V5.00001C6.66663 4.77001 6.85329 4.58334 7.08329 4.58334H8.33329C8.56329 4.58334 8.74996 4.77001 8.74996 5.00001V6.25001C8.74996 6.48001 8.56329 6.66668 8.33329 6.66668Z" fill="#B3B3B3"/>
<path d="M10.8333 6.66668H9.58329C9.35329 6.66668 9.16663 6.48001 9.16663 6.25001V5.00001C9.16663 4.77001 9.35329 4.58334 9.58329 4.58334H10.8333C11.0633 4.58334 11.25 4.77001 11.25 5.00001V6.25001C11.25 6.48001 11.0633 6.66668 10.8333 6.66668Z" fill="#B3B3B3"/>
<path d="M10.8333 4.16668H9.58329C9.35329 4.16668 9.16663 3.98001 9.16663 3.75001V2.50001C9.16663 2.27001 9.35329 2.08334 9.58329 2.08334H10.8333C11.0633 2.08334 11.25 2.27001 11.25 2.50001V3.75001C11.25 3.98001 11.0633 4.16668 10.8333 4.16668Z" fill="#B3B3B3"/>
<path d="M13.3333 9.16668H12.0833C11.8533 9.16668 11.6666 8.98001 11.6666 8.75001V7.50001C11.6666 7.27001 11.8533 7.08334 12.0833 7.08334H13.3333C13.5633 7.08334 13.75 7.27001 13.75 7.50001V8.75001C13.75 8.98001 13.5633 9.16668 13.3333 9.16668Z" fill="#B3B3B3"/>
</svg>
