<svg width="20" height="20" viewBox="0 0 20 20" fill="none" xmlns="http://www.w3.org/2000/svg">
<path d="M2.87344 15.1331L2.15469 14.7179L10.1625 0.848999L10.8808 1.264L2.87344 15.1331Z" fill="#B3B3B3"/>
<path d="M1.98969 13.6101H18.0047V14.4398H1.98969V13.6101Z" fill="#B3B3B3"/>
<path d="M10.3173 18.7012L2.30719 14.0765L2.72219 13.3575L10.7325 17.9828L10.3173 18.7012ZM17.2759 6.6473L9.26578 2.02199L9.68078 1.30371L17.6911 5.92824L17.2759 6.6473Z" fill="#B3B3B3"/>
<path d="M2.72406 6.64413L2.3089 5.92522L10.3198 1.30054L10.7348 2.01897L2.72406 6.64413Z" fill="#B3B3B3"/>
<path d="M17.1283 15.1331L9.12109 1.264L9.83953 0.848999L17.8473 14.7179L17.1283 15.1331ZM2.625 5.37462H3.45516V14.6252H2.62516L2.625 5.37462Z" fill="#B3B3B3"/>
<path d="M16.5449 5.37463H17.3749V14.6253H16.5449V5.37463Z" fill="#B3B3B3"/>
<path d="M10.1764 18.3501L9.8139 17.722L16.7805 13.6993L17.143 14.3275L10.1764 18.3501Z" fill="#B3B3B3"/>
<path d="M18.4747 14.895C17.995 15.73 16.925 16.015 16.0902 15.5353C15.2552 15.055 14.9702 13.985 15.4499 13.15C15.9302 12.315 17.0002 12.03 17.8352 12.5098C18.675 12.995 18.96 14.06 18.4747 14.895ZM4.54532 6.84996C4.06501 7.68496 2.99501 7.96996 2.16001 7.49012C1.32501 7.00981 1.04001 5.93996 1.51985 5.10496C2.00016 4.26996 3.07001 3.98496 3.90501 4.46465C4.74001 4.94996 5.02501 6.01496 4.54532 6.84996ZM1.52532 14.895C1.04485 14.06 1.33001 12.995 2.16485 12.5096C2.99985 12.03 4.06485 12.315 4.55016 13.15C5.02985 13.985 4.74485 15.05 3.90985 15.5353C3.07001 16.015 2.00501 15.73 1.52532 14.895ZM15.4547 6.84996C14.975 6.01496 15.26 4.94996 16.095 4.46465C16.93 3.98496 17.995 4.26996 18.4802 5.10496C18.9599 5.93996 18.675 7.00496 17.84 7.49027C17.005 7.96996 15.935 7.68496 15.4547 6.84996ZM10 19.79C9.77079 19.7902 9.54379 19.7452 9.33198 19.6575C9.12018 19.5699 8.92773 19.4414 8.76565 19.2793C8.60357 19.1172 8.47504 18.9248 8.38742 18.713C8.2998 18.5012 8.2548 18.2742 8.25501 18.045C8.2548 17.8157 8.2998 17.5887 8.38742 17.3769C8.47504 17.1651 8.60357 16.9727 8.76565 16.8106C8.92773 16.6485 9.12018 16.52 9.33198 16.4324C9.54379 16.3448 9.77079 16.2998 10 16.3C10.2292 16.2998 10.4562 16.3448 10.668 16.4324C10.8798 16.52 11.0723 16.6485 11.2344 16.8106C11.3964 16.9727 11.525 17.1651 11.6126 17.3769C11.7002 17.5887 11.7452 17.8157 11.745 18.045C11.745 19.0051 10.965 19.79 10 19.79ZM10 3.69996C9.77079 3.70017 9.54379 3.65517 9.33198 3.56755C9.12018 3.47993 8.92773 3.3514 8.76565 3.18932C8.60357 3.02724 8.47504 2.83479 8.38742 2.62299C8.2998 2.41118 8.2548 2.18418 8.25501 1.95496C8.2548 1.72575 8.2998 1.49874 8.38742 1.28694C8.47504 1.07513 8.60357 0.882681 8.76565 0.720602C8.92773 0.558523 9.12018 0.429995 9.33198 0.342373C9.54379 0.254752 9.77079 0.209756 10 0.209962C10.2292 0.209756 10.4562 0.254752 10.668 0.342373C10.8798 0.429995 11.0723 0.558523 11.2344 0.720602C11.3964 0.882681 11.525 1.07513 11.6126 1.28694C11.7002 1.49874 11.7452 1.72575 11.745 1.95496C11.7452 2.18418 11.7002 2.41118 11.6126 2.62299C11.525 2.83479 11.3964 3.02724 11.2344 3.18932C11.0723 3.3514 10.8798 3.47993 10.668 3.56755C10.4562 3.65517 10.2292 3.70017 10 3.69996Z" fill="#B3B3B3"/>
</svg>
