<svg width="20" height="20" viewBox="0 0 20 20" fill="none" xmlns="http://www.w3.org/2000/svg">
<path d="M0.110352 0.220245H19.6704V19.7804H0.110352V0.220245Z" fill="#B3B3B3"/>
<path d="M18.0696 15.1153C17.9263 14.2229 17.3445 13.4734 15.6209 12.7745C15.0221 12.4993 14.3546 12.3023 14.1557 11.8485C14.0851 11.5845 14.0757 11.4357 14.1204 11.2759C14.2487 10.7571 14.8679 10.5954 15.3587 10.7442C15.6748 10.8501 15.974 11.0937 16.1545 11.4823C16.9985 10.9357 16.9968 10.9393 17.5862 10.5637C17.3704 10.2292 17.2552 10.0748 17.114 9.93166C16.6063 9.36463 15.9146 9.0726 14.8084 9.09494L14.2321 9.16947C13.6799 9.309 13.1537 9.59885 12.8451 9.98744C11.9192 11.0381 12.1832 12.8768 13.3099 13.6335C14.4199 14.4667 16.0506 14.6562 16.2588 15.4353C16.4615 16.389 15.5579 16.6978 14.6598 16.5881C13.9979 16.4504 13.6298 16.114 13.2318 15.5023C12.4993 15.9262 12.4993 15.9262 11.7462 16.3593C11.9248 16.7498 12.1124 16.9265 12.4118 17.2648C13.8287 18.702 17.3743 18.6313 18.0102 16.456C18.036 16.3813 18.2073 15.8832 18.0696 15.1153ZM10.7438 9.2101H8.91431L8.90681 13.9401C8.90681 14.946 8.95884 15.8682 8.79525 16.1509C8.52759 16.7068 7.834 16.6379 7.51791 16.5301C7.19619 16.372 7.03259 16.1471 6.84306 15.8293C6.79103 15.7381 6.75197 15.6674 6.73884 15.662L5.25134 16.5729C5.49869 17.0806 5.86306 17.5212 6.32978 17.8074C7.02697 18.2259 7.964 18.3542 8.944 18.1292C9.58181 17.9434 10.1321 17.5585 10.4202 16.9728C10.8368 16.2048 10.7474 15.2753 10.7437 14.2471C10.7531 12.5698 10.7438 10.8928 10.7438 9.2101Z" fill="white"/>
</svg>
