<svg width="18" height="20" viewBox="0 0 18 20" fill="none" xmlns="http://www.w3.org/2000/svg">
<path d="M16.5109 4.73993L9.62069 0.739153C9.18616 0.491653 8.62038 0.491653 8.18241 0.739153L1.21866 4.73993C0.770225 4.9979 0.452881 5.48275 0.452881 6.00134V13.9923C0.452881 14.5109 0.778506 14.9959 1.22694 15.2552L3.06679 16.3002C3.94616 16.7334 4.25694 16.7334 4.6571 16.7334C5.95913 16.7334 6.70288 15.946 6.70288 14.5727V6.68368C6.70288 6.57228 6.64491 6.4065 6.53554 6.4065H5.65694C5.54569 6.4065 5.29663 6.57228 5.29663 6.68353V14.5726C5.29663 15.1813 4.74601 15.7871 3.71694 15.2726L1.81585 14.1768C1.7496 14.1409 1.70288 14.0685 1.70288 13.9923V6.00134C1.70288 5.92603 1.7896 5.8504 1.85632 5.81181L8.79757 1.8179C8.86241 1.78118 8.95772 1.78118 9.02241 1.8179L15.879 5.81087C15.9446 5.8504 15.9215 5.92368 15.9215 6.00134V13.9923C15.9215 14.0685 15.9501 14.1427 15.8852 14.1795L8.99679 18.1757C8.93772 18.2112 8.86444 18.2112 8.79976 18.1757L7.03304 17.1212C6.97976 17.0902 6.91647 17.0792 6.86538 17.1077C6.37382 17.3863 6.28319 17.4234 5.8221 17.5832C5.70866 17.6227 5.54132 17.6913 5.88616 17.8846L8.19835 19.2524C8.4191 19.3799 8.66952 19.4471 8.92444 19.4471C9.18101 19.4471 9.43226 19.3806 9.65366 19.2524L16.5107 15.2552C16.9591 14.994 17.1716 14.5109 17.1716 13.9923V6.00134C17.1716 5.48275 16.9591 4.99915 16.5109 4.73993ZM11.0638 12.726C9.23163 12.726 8.82804 12.2206 8.69351 11.3095C8.67788 11.2113 8.5946 11.094 8.49476 11.094H7.59929C7.48851 11.094 7.39944 11.2284 7.39944 11.3387C7.39944 12.5052 8.03366 13.9187 11.064 13.9187C13.2576 13.9187 14.5152 13.0663 14.5152 11.5579C14.5152 10.0623 13.5048 9.66978 11.3774 9.38822C9.2271 9.104 9.00866 8.9604 9.00866 8.45665C9.00866 8.04134 9.19366 7.48743 10.7858 7.48743C12.2085 7.48743 12.7329 7.79275 12.9487 8.75165C12.9671 8.84181 13.0494 8.9065 13.1424 8.9065H14.0415C14.0968 8.9065 14.1496 8.88415 14.1883 8.84462C14.2258 8.80212 14.2457 8.74884 14.2407 8.69165C14.1015 7.0404 13.0044 6.27087 10.7857 6.27087C8.8121 6.27087 7.63476 7.10431 7.63476 8.50134C7.63476 10.0167 8.80616 10.4354 10.7007 10.6227C12.9671 10.8449 13.1433 11.1762 13.1433 11.622C13.1433 12.3962 12.5218 12.726 11.0638 12.726Z" fill="#B3B3B3"/>
</svg>
