<svg width="20" height="20" viewBox="0 0 20 20" fill="none" xmlns="http://www.w3.org/2000/svg">
<path d="M14.5481 14.3928C14.6707 13.372 14.634 13.2221 15.3943 13.3876L15.5873 13.4045C16.172 13.431 16.9368 13.3104 17.3862 13.1017C18.3535 12.6528 18.927 11.9035 17.9734 12.1003C15.7977 12.5492 15.6482 11.8124 15.6482 11.8124C17.9456 8.40385 18.9059 4.07682 18.0768 3.0176C15.8159 0.128693 11.9023 1.49479 11.8368 1.5301L11.8159 1.53401C11.386 1.44479 10.9049 1.39151 10.3645 1.38276C9.37993 1.36651 8.6329 1.64088 8.06618 2.07057C8.06618 2.07057 1.08447 -0.805838 1.40931 5.68791C1.47837 7.06932 3.38931 16.1407 5.66868 13.4007C6.50181 12.3988 7.30681 11.5517 7.30681 11.5517C7.7065 11.8171 8.18525 11.9528 8.68712 11.904L8.72603 11.8709C8.71384 11.9953 8.71915 12.117 8.7415 12.261C8.15447 12.9171 8.32697 13.0323 7.15306 13.2738C5.96525 13.5185 6.66306 13.9543 7.11853 14.0682C7.67087 14.2064 8.94853 14.402 9.81197 13.1935L9.77759 13.3313C10.0079 13.5157 9.99243 14.6559 10.0249 15.4704C10.0576 16.2851 10.1121 17.0453 10.2782 17.4935C10.4443 17.9417 10.6402 19.096 12.1831 18.7654C13.4724 18.4898 14.4582 18.0921 14.5481 14.3928Z" fill="#B3B3B3"/>
<path d="M11.6807 19.5715C10.9984 19.5715 10.554 19.3076 10.2842 19.0527C9.87683 18.6684 9.71527 18.1732 9.61871 17.8774L9.57699 17.754C9.38262 17.2293 9.31668 16.4738 9.27762 15.501C9.27168 15.3549 9.26762 15.2045 9.26309 15.0449C9.2598 14.9282 9.25574 14.7818 9.2498 14.6287C9.00397 14.7459 8.74304 14.8284 8.47449 14.8737C7.9934 14.9559 7.47621 14.9293 6.93699 14.7945C6.55652 14.6993 6.16121 14.5021 5.9359 14.1976C5.27918 14.7727 4.65277 14.6948 4.31152 14.5809C3.70949 14.3801 3.17074 13.8159 2.66434 12.8563C2.30355 12.1727 1.95465 11.2821 1.62715 10.209C1.05684 8.34025 0.694492 6.37196 0.662304 5.72571C0.561054 3.70306 1.10559 2.2565 2.28043 1.42665C4.13371 0.117589 6.94168 0.887433 7.96543 1.23696C8.65324 0.822433 9.46246 0.620714 10.3768 0.635246C10.8679 0.643214 11.3356 0.686339 11.77 0.763839C12.2231 0.621339 13.1181 0.416808 14.1426 0.42962C16.0303 0.45212 17.5945 1.18775 18.6659 2.55696C19.4306 3.53384 19.0525 5.58525 18.7592 6.72118C18.3464 8.319 17.6231 10.0184 16.7346 11.4977C16.9759 11.4995 17.3254 11.4706 17.8223 11.3679C18.8026 11.1656 19.0893 11.6912 19.1671 11.9265C19.4789 12.8706 18.1239 13.584 17.7012 13.7802C17.1596 14.0317 16.2767 14.1848 15.5536 14.1517L15.522 14.1496L15.332 14.1329L15.3132 14.2913L15.2951 14.4462C15.2465 16.321 14.9787 17.5084 14.4276 18.2929C13.85 19.1154 13.0471 19.3459 12.34 19.4974C12.0987 19.549 11.8795 19.5715 11.6807 19.5715ZM10.2448 12.7479C10.6853 13.1004 10.7239 13.7637 10.7584 15.0032C10.7628 15.1579 10.7668 15.3043 10.7723 15.441C10.7889 15.8551 10.8278 16.8246 10.9796 17.2343C11.0011 17.2923 11.0203 17.351 11.0406 17.4134C11.2098 17.9315 11.2946 18.1913 12.0264 18.0349C12.6406 17.9032 12.9564 17.7851 13.2036 17.4332C13.5628 16.9217 13.7637 15.8926 13.8006 14.3746L14.5479 14.3927L13.8057 14.3037L13.8276 14.1184C13.8987 13.5074 13.95 13.0662 14.3582 12.7743C14.6859 12.5402 15.0592 12.5629 15.3565 12.6165C15.0298 12.3696 14.9395 12.0801 14.9154 11.9613L14.8531 11.6543L15.0282 11.3945C16.0371 9.89759 16.869 8.0579 17.3109 6.34696C17.765 4.589 17.6265 3.6554 17.4881 3.47884C15.6554 1.13712 12.4775 2.104 12.1456 2.21368L12.0895 2.244L11.8082 2.29634L11.6642 2.2665C11.267 2.184 10.8257 2.13837 10.3528 2.13071C9.60965 2.11821 9.01012 2.29384 8.51855 2.66681L8.17746 2.9254L7.78168 2.76243C6.93605 2.41665 4.4523 1.7215 3.14168 2.64978C2.41418 3.16509 2.08277 4.17478 2.15652 5.65087C2.1809 6.13821 2.51199 7.98306 3.05824 9.77228C3.81309 12.2449 4.49902 13.0663 4.78543 13.1618C4.83543 13.1787 4.96512 13.0779 5.09418 12.9229C5.63231 12.2778 6.18953 11.6489 6.76512 11.037L7.19793 10.5815L7.72121 10.9292C7.93215 11.0693 8.1648 11.1488 8.40371 11.1638L9.65168 10.0995L9.4709 11.9445C9.46684 11.9859 9.4648 12.0423 9.48105 12.147L9.53543 12.4967L9.29949 12.7604L9.2723 12.791L9.95793 13.1074L10.2448 12.7479Z" fill="#B3B3B3"/>
<path d="M17.9733 12.1003C15.7976 12.5492 15.648 11.8124 15.648 11.8124C17.9454 8.40369 18.9057 4.0765 18.0769 3.01759C15.816 0.128843 11.9021 1.49494 11.8368 1.53041L11.8157 1.53416C11.3858 1.44494 10.9047 1.39181 10.364 1.38306C9.37944 1.36697 8.63272 1.64119 8.066 2.07087C8.066 2.07087 1.08412 -0.805375 1.40881 5.68822C1.47787 7.06978 3.38881 16.1412 5.66819 13.4012C6.50131 12.3993 7.30615 11.5521 7.30615 11.5521C7.706 11.8176 8.18459 11.9532 8.68631 11.9045L8.72537 11.8713C8.71319 11.9957 8.71881 12.1174 8.741 12.2615C8.15381 12.9176 8.32631 13.0328 7.1524 13.2743C5.96459 13.519 6.6624 13.9548 7.11803 14.0687C7.67022 14.2068 8.94803 14.4024 9.81131 13.194L9.77678 13.3318C10.0069 13.5162 10.1685 14.5306 10.1415 15.4501C10.1143 16.3696 10.0962 17.001 10.2776 17.4942C10.4588 17.9873 10.6394 19.0967 12.1826 18.766C13.4719 18.4898 14.1401 17.7737 14.2332 16.5793C14.2991 15.7301 14.4483 15.8557 14.4579 15.0965L14.5777 14.7371C14.7158 13.586 14.5996 13.2148 15.3941 13.3874L15.5871 13.4043C16.1718 13.4309 16.9369 13.3102 17.3862 13.1015C18.3533 12.6529 18.9269 11.9035 17.9733 12.1003Z" fill="#B3B3B3"/>
<path d="M11.7586 19.1107C10.4724 19.1107 10.0649 18.0921 9.89816 17.6756C9.65409 17.0651 9.60144 14.696 9.65581 12.7532C9.65662 12.7205 9.6639 12.6882 9.67724 12.6582C9.69058 12.6283 9.70971 12.6013 9.73353 12.5788C9.75735 12.5563 9.78538 12.5387 9.81603 12.5271C9.84667 12.5154 9.87931 12.51 9.91206 12.511C9.94479 12.5119 9.97702 12.5192 10.0069 12.5326C10.0368 12.546 10.0638 12.5651 10.0862 12.5889C10.1087 12.6126 10.1263 12.6406 10.138 12.6712C10.1497 12.7018 10.1552 12.7344 10.1543 12.7671C10.0916 15.0079 10.1805 17.0385 10.3611 17.4904C10.643 18.1949 11.0705 18.8112 12.2791 18.5523C13.4264 18.3062 13.8561 17.8712 14.0475 16.7617C14.1944 15.9102 14.4849 13.4881 14.5207 13.0101C14.523 12.9774 14.5319 12.9456 14.5466 12.9163C14.5613 12.8871 14.5817 12.861 14.6065 12.8396C14.6313 12.8183 14.6601 12.802 14.6912 12.7918C14.7224 12.7816 14.7552 12.7776 14.7878 12.7801C14.8538 12.7851 14.915 12.816 14.9581 12.8661C15.0012 12.9162 15.0227 12.9814 15.0178 13.0473C14.9805 13.5449 14.6914 15.9624 14.5389 16.8465C14.313 18.157 13.7288 18.7513 12.3836 19.0398C12.155 19.0887 11.9474 19.1106 11.7586 19.1107ZM4.78425 14.1356C4.67182 14.1352 4.56019 14.1167 4.45363 14.0809C3.61816 13.8021 2.82238 12.4415 2.08831 10.0363C1.52956 8.20556 1.1755 6.29462 1.14441 5.67353C1.05238 3.83228 1.52644 2.52962 2.55378 1.80196C4.58613 0.361963 8.00503 1.73321 8.14956 1.79228C8.21079 1.81728 8.25958 1.86559 8.28519 1.92657C8.3108 1.98755 8.31113 2.0562 8.28613 2.11743C8.26112 2.17866 8.21281 2.22744 8.15183 2.25305C8.09085 2.27867 8.0222 2.279 7.96097 2.25399C7.928 2.24056 4.64956 0.927119 2.84097 2.20946C1.96253 2.83228 1.55925 3.98946 1.64222 5.64868C1.66831 6.17196 1.99909 8.03696 2.56503 9.89071C3.22034 12.0379 3.96613 13.3927 4.61128 13.6079C4.71253 13.6417 5.02066 13.7443 5.46113 13.2146C5.97479 12.5977 6.50771 11.9971 7.05909 11.4137C7.10523 11.3677 7.16755 11.3415 7.23271 11.3409C7.29787 11.3402 7.3607 11.3651 7.40775 11.4102C7.45479 11.4553 7.48232 11.517 7.48445 11.5821C7.48657 11.6473 7.46311 11.7106 7.41909 11.7587C7.41159 11.7665 6.66175 12.5504 5.84456 13.5335C5.45753 13.999 5.08659 14.1356 4.78425 14.1356ZM15.6325 12.0348C15.5873 12.0347 15.543 12.0224 15.5043 11.9991C15.4655 11.9758 15.4339 11.9424 15.4127 11.9025C15.3915 11.8625 15.3815 11.8176 15.3838 11.7725C15.3862 11.7273 15.4007 11.6837 15.426 11.6462C17.7483 8.20009 18.5635 4.03618 17.8653 3.14399C16.9866 2.02118 15.7458 1.43478 14.1772 1.40087C13.0158 1.37587 12.0927 1.67243 11.9418 1.72415L11.9038 1.73962C11.7521 1.78728 11.6357 1.70415 11.5918 1.60696C11.5667 1.55128 11.5629 1.48836 11.5811 1.43008C11.5992 1.37179 11.6381 1.32216 11.6903 1.29056C11.6975 1.28634 11.7203 1.27665 11.7574 1.26306C12.0138 1.16915 12.951 0.8879 14.1118 0.901181C15.8474 0.919619 17.2811 1.58884 18.2577 2.83681C18.7197 3.42728 18.7208 4.78759 18.2607 6.56915C17.7916 8.38556 16.9089 10.3376 15.8393 11.9249C15.7914 11.9963 15.7127 12.0348 15.6325 12.0348ZM15.7513 13.6301C15.3547 13.6301 14.9993 13.5742 14.7864 13.4467C14.5677 13.3156 14.526 13.1374 14.5205 13.0429C14.4608 11.9945 15.0393 11.812 15.3343 11.7287C15.2932 11.6665 15.2347 11.5934 15.1743 11.5179C15.0022 11.3029 14.7666 11.0085 14.585 10.5682C14.5566 10.4995 14.4675 10.3396 14.3644 10.1545C13.8052 9.15165 12.6416 7.06493 13.3891 5.99634C13.735 5.50181 14.4239 5.30712 15.4389 5.41571C15.1403 4.50603 13.7185 1.6604 10.3446 1.60509C9.32988 1.58821 8.49769 1.90024 7.87238 2.53165C6.47238 3.94556 6.523 6.50384 6.52378 6.52946C6.52464 6.56219 6.51905 6.59477 6.50732 6.62533C6.49559 6.6559 6.47796 6.68386 6.45543 6.70761C6.43289 6.73136 6.4059 6.75044 6.376 6.76376C6.34609 6.77708 6.31385 6.78438 6.28113 6.78524C6.2484 6.78611 6.21582 6.78051 6.18525 6.76879C6.15469 6.75706 6.12673 6.73942 6.10298 6.71689C6.07923 6.69436 6.06015 6.66737 6.04683 6.63746C6.03351 6.60755 6.02621 6.57532 6.02534 6.54259C6.02222 6.42899 5.97003 3.74431 7.51816 2.18071C8.24269 1.44899 9.19644 1.08774 10.3528 1.10665C12.5113 1.14212 13.9007 2.23946 14.686 3.15368C15.5421 4.15009 15.9618 5.24915 15.9963 5.61603C16.0221 5.88884 15.8263 5.94337 15.7868 5.95149L15.6968 5.95353C14.7007 5.79399 14.0616 5.90478 13.7974 6.28228C13.2288 7.09493 14.3296 9.06884 14.7996 9.91181C14.9196 10.1268 15.0061 10.2823 15.0458 10.3782C15.2002 10.7526 15.4016 11.0042 15.5633 11.2063C15.7057 11.3842 15.8289 11.5384 15.873 11.7193C15.8935 11.7552 16.1839 12.1849 17.9075 11.8292C18.3396 11.7401 18.5986 11.8162 18.6778 12.0557C18.8336 12.5268 17.9596 13.0763 17.4757 13.301C17.0421 13.5026 16.35 13.6301 15.7513 13.6301ZM15.0175 13.0018C15.0722 13.057 15.3458 13.1521 15.9124 13.1277C16.4161 13.1062 16.9474 12.9967 17.2661 12.8487C17.6738 12.6593 17.946 12.4476 18.0869 12.3031L18.0088 12.3174C16.9068 12.5449 16.1272 12.5146 15.6919 12.2273C15.6627 12.2079 15.6345 12.187 15.6075 12.1646C15.5603 12.1832 15.5168 12.1954 15.4857 12.2042C15.2388 12.2734 14.9835 12.3451 15.0175 13.0018ZM7.89847 14.3948C7.62472 14.3948 7.33659 14.3574 7.04238 14.2838C6.73753 14.2076 6.22363 13.9781 6.23144 13.601C6.24034 13.1781 6.8555 13.0512 7.08706 13.0035C7.92363 12.8312 7.97816 12.7621 8.23956 12.4301C8.31581 12.3334 8.41066 12.2129 8.54003 12.0685C8.73206 11.8535 8.94191 11.7446 9.16378 11.7446C9.31831 11.7446 9.44503 11.797 9.52878 11.8318C9.79566 11.9424 10.0183 12.2099 10.1099 12.5298C10.1925 12.8184 10.153 13.0962 9.99894 13.312C9.49316 14.0202 8.76675 14.3948 7.89847 14.3948ZM6.77003 13.6224C6.84519 13.6806 6.99581 13.7582 7.16347 13.8001C7.41831 13.8638 7.6655 13.8962 7.89863 13.8962C8.60894 13.8962 9.17925 13.6021 9.59347 13.0221C9.67988 12.9012 9.65394 12.7476 9.63081 12.6668C9.58238 12.4976 9.46206 12.3437 9.33816 12.2923C9.27097 12.2645 9.21519 12.2432 9.16394 12.2432C9.13644 12.2432 9.05269 12.2432 8.91175 12.4009C8.81449 12.5103 8.721 12.6229 8.63144 12.7387C8.30581 13.1521 8.15659 13.2924 7.18784 13.492C6.95144 13.5404 6.83019 13.5898 6.77003 13.6224ZM8.68706 12.4724C8.62755 12.4723 8.57003 12.451 8.52489 12.4122C8.47976 12.3734 8.44999 12.3197 8.44097 12.2609C8.43477 12.2195 8.4306 12.1778 8.42847 12.136C7.79347 12.1242 7.18081 11.8517 6.71566 11.3663C6.12753 10.7527 5.85988 9.90259 5.98144 9.03399C6.11347 8.09071 6.06409 7.25806 6.03753 6.81071C6.03019 6.68634 6.02488 6.59649 6.02519 6.53431C6.02566 6.4554 6.02722 6.24618 6.72659 5.89165C6.97534 5.76556 7.47409 5.54556 8.01894 5.48915C8.92159 5.39587 9.51659 5.7979 9.69472 6.62134C10.1755 8.84446 9.73284 9.82774 9.40956 10.5459C9.34941 10.6796 9.29253 10.8059 9.24706 10.9282L9.20691 11.036C9.03613 11.494 8.88847 11.8896 8.93378 12.1851C8.93876 12.2174 8.93731 12.2505 8.92952 12.2823C8.92172 12.3141 8.90774 12.344 8.88837 12.3704C8.869 12.3968 8.84462 12.4191 8.81662 12.4361C8.78862 12.4531 8.75755 12.4644 8.72519 12.4693L8.68706 12.4724ZM6.52534 6.60337L6.53503 6.78134C6.56253 7.24603 6.61378 8.11071 6.47503 9.10321C6.37488 9.81962 6.59363 10.5188 7.0755 11.0213C7.45628 11.4185 7.95738 11.6377 8.47238 11.6377H8.483C8.54066 11.3948 8.63644 11.1382 8.73956 10.8618L8.77941 10.7546C8.83081 10.6165 8.89097 10.4827 8.95472 10.3412C9.26581 9.64993 9.65316 8.78946 9.20706 6.72681C9.11878 6.31821 8.90456 6.08181 8.55253 6.00384C7.82941 5.84415 6.75175 6.38806 6.52534 6.60337ZM8.03003 6.49759C8.01753 6.58571 8.19144 6.82103 8.41831 6.85243C8.64472 6.88415 8.83847 6.70009 8.85081 6.61196C8.86316 6.52384 8.68941 6.42665 8.46253 6.39509C8.23581 6.36353 8.04206 6.40946 8.03003 6.49759ZM8.47034 6.93915L8.40675 6.93478C8.26613 6.91524 8.12394 6.82665 8.02659 6.69759C7.99238 6.65228 7.93659 6.56446 7.94769 6.48603C7.96347 6.37103 8.10378 6.30212 8.32269 6.30212C8.37159 6.30212 8.42253 6.30571 8.47378 6.3129C8.59347 6.32946 8.70456 6.36399 8.78659 6.40978C8.92878 6.48915 8.93925 6.57774 8.93284 6.62353C8.91534 6.75056 8.71331 6.93915 8.47034 6.93915ZM8.11269 6.51228C8.11972 6.56665 8.25441 6.74603 8.42972 6.77024L8.4705 6.77306C8.63238 6.77306 8.75331 6.64571 8.76753 6.60399C8.75253 6.57556 8.64847 6.50493 8.45113 6.47743C8.40864 6.47134 8.36577 6.46826 8.32284 6.46821C8.19597 6.46821 8.12863 6.49681 8.11269 6.51228ZM14.926 6.31774C14.9383 6.40587 14.7646 6.64118 14.5378 6.67274C14.3113 6.70431 14.1174 6.5204 14.1049 6.43228C14.093 6.34415 14.2668 6.24681 14.4933 6.2154C14.7199 6.18368 14.9135 6.22978 14.926 6.31774ZM14.4855 6.71774C14.2674 6.71774 14.0791 6.54806 14.0636 6.4379C14.0457 6.30571 14.2633 6.20524 14.4874 6.17415C14.5368 6.16728 14.5857 6.16384 14.6327 6.16384C14.8261 6.16384 14.9543 6.22056 14.9671 6.31212C14.9753 6.37134 14.9299 6.46274 14.8516 6.54524C14.7999 6.59946 14.6913 6.69337 14.5433 6.71384L14.4855 6.71774ZM14.6328 6.24696C14.5897 6.24696 14.5447 6.25024 14.4991 6.25649C14.2739 6.2879 14.1396 6.37821 14.1461 6.42665C14.1536 6.47993 14.2974 6.63478 14.4857 6.63478L14.5321 6.63149C14.655 6.61446 14.7474 6.53415 14.7914 6.4879C14.8607 6.41524 14.8882 6.34681 14.8849 6.32353C14.8805 6.29259 14.7974 6.24696 14.6328 6.24696ZM15.2524 11.3787C15.2072 11.3787 15.1629 11.3665 15.1241 11.3432C15.0854 11.32 15.0537 11.2867 15.0325 11.2468C15.0112 11.207 15.0012 11.1621 15.0035 11.117C15.0058 11.0718 15.0203 11.0282 15.0455 10.9907C15.5764 10.1977 15.4793 9.38915 15.3853 8.60712C15.3452 8.27399 15.3039 7.92946 15.3146 7.59884C15.3255 7.25868 15.3688 6.97806 15.4105 6.70665C15.46 6.38509 15.5069 6.08134 15.4875 5.72071C15.4858 5.68803 15.4905 5.65531 15.5013 5.62444C15.5122 5.59356 15.5291 5.56513 15.5509 5.54077C15.5728 5.51641 15.5992 5.4966 15.6288 5.48246C15.6583 5.46832 15.6903 5.46013 15.723 5.45837C15.7557 5.4566 15.7884 5.4613 15.8193 5.47217C15.8501 5.48305 15.8786 5.49991 15.9029 5.52177C15.9273 5.54364 15.9471 5.57009 15.9613 5.59961C15.9754 5.62913 15.9836 5.66115 15.9853 5.69384C16.0075 6.10603 15.9546 6.44978 15.9033 6.78243C15.8638 7.03915 15.8228 7.30462 15.813 7.61478C15.8035 7.90759 15.8408 8.21853 15.8803 8.54759C15.9803 9.37915 16.0936 10.3217 15.4599 11.2681C15.4371 11.3021 15.4062 11.3301 15.37 11.3494C15.3338 11.3687 15.2934 11.3787 15.2524 11.3787Z" fill="white"/>
</svg>
