<svg width="20" height="18" viewBox="0 0 20 18" fill="none" xmlns="http://www.w3.org/2000/svg">
<path d="M9.89038 10.7815C10.8741 10.7815 11.6716 9.984 11.6716 9.00024C11.6716 8.01649 10.8741 7.21899 9.89038 7.21899C8.90662 7.21899 8.10913 8.01649 8.10913 9.00024C8.10913 9.984 8.90662 10.7815 9.89038 10.7815Z" fill="#B3B3B3"/>
<path d="M16.656 6.06274C16.3123 5.93774 15.9529 5.81274 15.5779 5.70337C15.6716 5.32837 15.7498 4.95337 15.8123 4.59399C16.1404 2.53149 15.781 1.07837 14.781 0.515869C14.4841 0.343994 14.156 0.265869 13.781 0.265869C12.6873 0.265869 11.2966 1.07837 9.89038 2.43774C8.48413 1.07837 7.09351 0.265869 5.99976 0.265869C5.62476 0.265869 5.29663 0.343994 4.99976 0.515869C3.99976 1.09399 3.64038 2.54712 3.96851 4.59399C4.03101 4.95337 4.10913 5.32837 4.20288 5.70337C3.82788 5.81274 3.46851 5.92212 3.12476 6.06274C1.17163 6.81274 0.109131 7.84399 0.109131 9.00024C0.109131 10.1565 1.18726 11.1877 3.12476 11.9377C3.46851 12.0627 3.82788 12.1877 4.20288 12.2971C4.10913 12.6721 4.03101 13.0471 3.96851 13.4065C3.64038 15.469 3.99976 16.9221 4.99976 17.4846C5.29663 17.6565 5.62476 17.7346 5.99976 17.7346C7.10913 17.7346 8.49976 16.9221 9.89038 15.5627C11.2966 16.9221 12.6873 17.7346 13.781 17.7346C14.156 17.7346 14.4841 17.6565 14.781 17.4846C15.781 16.9065 16.1404 15.4534 15.8123 13.4065C15.7498 13.0471 15.6716 12.6721 15.5779 12.2971C15.9529 12.1877 16.3123 12.0784 16.656 11.9377C18.6091 11.1877 19.6716 10.1565 19.6716 9.00024C19.6716 7.84399 18.6091 6.81274 16.656 6.06274ZM14.3435 1.29712C14.9841 1.67212 15.2029 2.82837 14.9373 4.46899C14.8904 4.79712 14.8123 5.14087 14.7185 5.50024C13.906 5.31274 13.0466 5.18774 12.1404 5.10962C11.6091 4.35962 11.0623 3.68774 10.5154 3.07837C11.6716 1.93774 12.8435 1.15649 13.7966 1.15649C13.9998 1.15649 14.1873 1.20337 14.3435 1.29712ZM12.5935 10.5627C12.3123 11.0627 11.9841 11.5627 11.6404 12.0627C11.0623 12.1096 10.4841 12.1252 9.89038 12.1252C9.28101 12.1252 8.70288 12.1096 8.14038 12.0627C7.79663 11.5627 7.48413 11.0627 7.20288 10.5627C6.90601 10.0471 6.62476 9.51587 6.37476 9.00024C6.62476 8.48462 6.90601 7.95337 7.20288 7.43774C7.48413 6.93774 7.81226 6.43774 8.15601 5.93774C8.73413 5.89087 9.31226 5.87524 9.90601 5.87524C10.5154 5.87524 11.0935 5.89087 11.656 5.93774C11.9998 6.43774 12.3123 6.93774 12.5935 7.43774C12.8904 7.95337 13.1716 8.48462 13.4216 9.00024C13.156 9.51587 12.8904 10.0315 12.5935 10.5627ZM13.8904 10.0471C14.1248 10.594 14.3123 11.1252 14.4841 11.6565C13.9529 11.7815 13.3904 11.8752 12.7966 11.9534C12.9841 11.6565 13.1873 11.344 13.3591 11.0159C13.5466 10.6877 13.7185 10.3596 13.8904 10.0471ZM9.89038 14.2815C9.51538 13.8752 9.15601 13.4377 8.81226 12.9846C9.17163 13.0002 9.53101 13.0159 9.89038 13.0159C10.2498 13.0159 10.6091 13.0002 10.9685 12.9846C10.6248 13.4377 10.2654 13.8752 9.89038 14.2815ZM6.98413 11.9377C6.39038 11.8596 5.82788 11.7659 5.29663 11.6409C5.46851 11.1252 5.65601 10.5784 5.89038 10.0315C6.06226 10.344 6.23413 10.6721 6.42163 10.9846C6.60913 11.3284 6.79663 11.6252 6.98413 11.9377ZM5.89038 7.95337C5.65601 7.40649 5.46851 6.87524 5.29663 6.34399C5.82788 6.21899 6.39038 6.12524 6.98413 6.04712C6.79663 6.34399 6.59351 6.65649 6.42163 6.98462C6.23413 7.31274 6.06226 7.64087 5.89038 7.95337ZM9.89038 3.71899C10.2654 4.12524 10.6248 4.56274 10.9685 5.01587C10.6091 5.00024 10.2498 4.98462 9.89038 4.98462C9.53101 4.98462 9.17163 5.00024 8.81226 5.01587C9.15601 4.56274 9.51538 4.12524 9.89038 3.71899ZM13.3591 7.00024L12.7966 6.06274C13.3904 6.14087 13.9529 6.23462 14.4841 6.35962C14.3123 6.87524 14.1248 7.42212 13.8904 7.96899C13.7185 7.64087 13.5466 7.31274 13.3591 7.00024ZM4.84351 4.46899C4.57788 2.82837 4.79663 1.67212 5.43726 1.29712C5.59351 1.20337 5.78101 1.15649 5.98413 1.15649C6.92163 1.15649 8.09351 1.92212 9.26538 3.07837C8.71851 3.67212 8.17163 4.35962 7.64038 5.10962C6.73413 5.18774 5.87476 5.32837 5.06226 5.50024C4.96851 5.14087 4.90601 4.79712 4.84351 4.46899ZM0.984131 9.00024C0.984131 8.26587 1.87476 7.48462 3.43726 6.90649C3.74976 6.78149 4.09351 6.67212 4.43726 6.57837C4.68726 7.35962 4.99976 8.18774 5.37476 9.01587C4.99976 9.84399 4.67163 10.6565 4.43726 11.4377C2.28101 10.8127 0.984131 9.87524 0.984131 9.00024ZM5.43726 16.7034C4.79663 16.3284 4.57788 15.1721 4.84351 13.5315C4.89038 13.2034 4.96851 12.8596 5.06226 12.5002C5.87476 12.6877 6.73413 12.8127 7.64038 12.8909C8.17163 13.6409 8.71851 14.3127 9.26538 14.9221C8.10913 16.0627 6.93726 16.844 5.98413 16.844C5.78101 16.844 5.59351 16.7971 5.43726 16.7034ZM14.9373 13.5315C15.2029 15.1721 14.9841 16.3284 14.3435 16.7034C14.1873 16.7971 13.9998 16.844 13.7966 16.844C12.8591 16.844 11.6873 16.0784 10.5154 14.9221C11.0623 14.3284 11.6091 13.6409 12.1404 12.8909C13.0466 12.8127 13.906 12.6721 14.7185 12.5002C14.8123 12.8596 14.8748 13.2034 14.9373 13.5315ZM16.3435 11.094C16.031 11.219 15.6873 11.3284 15.3435 11.4221C15.0935 10.6409 14.781 9.81274 14.406 8.98462C14.781 8.15649 15.1091 7.34399 15.3435 6.56274C17.4998 7.18774 18.7966 8.12524 18.7966 9.00024C18.7966 9.73462 17.8904 10.5159 16.3435 11.094Z" fill="#B3B3B3"/>
</svg>
