<svg width="20" height="20" viewBox="0 0 20 20" fill="none" xmlns="http://www.w3.org/2000/svg">
<path fill-rule="evenodd" clip-rule="evenodd" d="M0.190475 8.77437C0.190475 8.88422 0.222819 8.95672 0.240944 9.02719C0.359069 9.48547 0.612975 9.87875 0.914225 10.2375C1.34329 10.7487 1.86876 11.1603 2.40704 11.5473C2.87391 11.883 3.35032 12.2111 3.81907 12.5442C3.89954 12.6014 3.97563 12.6672 4.06298 12.7373C3.98782 12.778 3.92532 12.8138 3.86032 12.8467C3.24173 13.1605 2.64657 13.5122 2.09798 13.9383C1.76735 14.1952 1.44766 14.4681 1.22188 14.8248C0.858601 15.3986 0.730007 16.0098 1.00079 16.6625C1.07985 16.8531 1.20048 17.0178 1.37063 17.1395C1.42579 17.1789 1.48766 17.218 1.55219 17.2333C1.71751 17.2722 1.88594 17.2977 2.05329 17.3284L2.52719 17.3281C3.05126 17.2814 3.52829 17.1019 3.95938 16.8044C4.63313 16.3394 5.08704 15.7159 5.28219 14.9158C5.42407 14.3342 5.42985 13.752 5.26266 13.1731C5.24666 13.1195 5.2282 13.0666 5.20735 13.0147C5.18704 12.9627 5.16313 12.912 5.13501 12.8472L6.20938 12.2294L6.22547 12.2431C6.20594 12.307 6.18516 12.3708 6.16751 12.4353C6.03985 12.9016 5.95501 13.3759 5.98548 13.8598C6.01798 14.3755 6.16188 14.8581 6.46376 15.2889C6.70782 15.6373 7.28938 15.6503 7.54876 15.3006C7.64079 15.1764 7.73001 15.0466 7.79704 14.908C7.97219 14.5463 8.13438 14.1781 8.30173 13.8125L8.33094 13.7456C8.31891 13.9188 8.30485 14.0708 8.29844 14.223C8.28844 14.4606 8.30235 14.6969 8.3836 14.923C8.45313 15.1164 8.57141 15.2609 8.79298 15.2864C8.94454 15.3038 9.06532 15.2344 9.17673 15.1464C9.34932 15.01 9.49237 14.84 9.59719 14.6466C9.89423 14.1011 10.1992 13.5589 10.4684 12.9997C10.7597 12.3948 11.0144 11.7723 11.2849 11.1572L11.3295 11.0481C11.3934 11.2992 11.438 11.5452 11.52 11.778C11.6153 12.0481 11.7333 12.3119 11.8617 12.5683C11.9225 12.6894 11.9155 12.768 11.8313 12.8695C11.4788 13.2945 11.1324 13.7247 10.7856 14.1544C10.7089 14.2492 10.6325 14.3458 10.5686 14.4494C10.5298 14.5148 10.5043 14.5872 10.4936 14.6625C10.4828 14.7318 10.4993 14.8026 10.5396 14.86C10.5799 14.9174 10.6409 14.957 10.7097 14.9705C10.8486 15.0004 10.9911 15.0105 11.1328 15.0006C11.6167 14.965 12.0561 14.7952 12.4445 14.5073C12.9478 14.1345 13.1094 13.6258 12.9875 13.0228C12.9545 12.8592 12.8963 12.7002 12.8395 12.5425C12.8141 12.4714 12.8123 12.4216 12.8588 12.3553C13.2611 11.7808 13.6048 11.1712 13.9245 10.5477C13.9372 10.5231 13.9502 10.4986 13.9723 10.4723C14.0759 11.0114 14.2319 11.5309 14.5113 12.0023C14.3688 12.1397 14.2277 12.2642 14.1 12.4014C13.8189 12.7036 13.5752 13.0317 13.448 13.4319C13.3933 13.6044 13.3513 13.7797 13.3756 13.9639C13.4134 14.25 13.6478 14.4359 13.9292 14.3708C14.5314 14.2314 15.0513 13.9477 15.4311 13.445C15.6867 13.1066 15.71 12.7291 15.603 12.3336C15.5736 12.2261 15.5388 12.1203 15.5013 11.997C15.6499 11.9509 15.7947 11.8956 15.9445 11.8614C16.7225 11.6839 17.492 11.7148 18.2417 11.9958C18.6794 12.1598 19.033 12.4344 19.2427 12.8663C19.4988 13.3942 19.3572 13.8952 18.8595 14.2289C18.8131 14.26 18.76 14.2845 18.7216 14.3234C18.7093 14.3377 18.7 14.3544 18.6945 14.3724C18.689 14.3904 18.6873 14.4094 18.6895 14.4281C18.6928 14.4473 18.7436 14.4714 18.7728 14.4711C18.9364 14.4698 19.0691 14.3841 19.1964 14.2959C19.5155 14.0752 19.7483 13.7781 19.7984 13.387L19.8083 13.3577L19.7963 13.103C19.7914 13.0883 19.7998 13.0737 19.7988 13.0627C19.7309 12.4931 19.4267 12.0514 18.9842 11.7052C18.4717 11.3044 17.8666 11.1394 17.2266 11.1133C16.7075 11.0909 16.1891 11.1707 15.7008 11.3481C15.5606 11.3989 15.4217 11.4591 15.2808 11.5158C15.2619 11.4816 15.2416 11.4488 15.2249 11.4148C15.0802 11.1186 14.9048 10.8355 14.8661 10.4958C14.8386 10.2545 14.8048 10.0136 14.8622 9.775C14.9173 9.54547 14.9892 9.31984 15.0569 9.09344C15.0917 8.97688 15.0672 8.91156 14.9559 8.85906C14.9172 8.83973 14.8758 8.82615 14.8331 8.81875C14.5597 8.77906 14.29 8.80172 14.0252 8.87875C13.9314 8.90609 13.8633 8.95859 13.8425 9.06234C13.8306 9.12188 13.8064 9.17891 13.7895 9.23766C13.7203 9.48187 13.6713 9.73078 13.5594 9.96344C13.2791 10.547 12.9591 11.1086 12.6316 11.6661C12.5961 11.7263 12.5588 11.7853 12.5141 11.8583C12.3991 11.6177 12.2764 11.4017 12.2392 11.1486C12.1972 10.8623 12.1641 10.5766 12.2353 10.2925C12.2883 10.0806 12.3575 9.87266 12.4213 9.66359C12.4514 9.56422 12.4375 9.51203 12.3475 9.45969C12.302 9.43328 12.2506 9.40984 12.1994 9.40219C11.919 9.35948 11.6325 9.38292 11.3628 9.47062C11.278 9.49812 11.2334 9.55297 11.2075 9.64047C11.1313 9.89859 11.0663 10.163 10.9592 10.4084C10.5258 11.4022 10.0799 12.3908 9.63438 13.3792C9.54141 13.5856 9.43251 13.7848 9.32766 13.9858C9.3011 14.0367 9.26235 14.0816 9.22923 14.1294C9.20266 14.098 9.19235 14.0764 9.19251 14.0548C9.19329 13.9278 9.17813 13.797 9.20235 13.6742C9.27672 13.3028 9.35893 12.933 9.44891 12.565C9.52235 12.2609 9.60782 11.9597 9.68923 11.6577C9.71657 11.5566 9.71704 11.462 9.64438 11.377C9.52235 11.2347 9.26735 11.2034 9.1161 11.3131L9.04923 11.3509L9.06219 11.2431C9.09407 11.012 9.10048 10.7817 9.03704 10.5541C8.95798 10.2703 8.75548 10.107 8.4611 10.1161C8.32391 10.1203 8.17985 10.1437 8.05282 10.1937C7.5186 10.4031 7.10782 10.7739 6.75813 11.22C6.72571 11.2614 6.68554 11.2961 6.63985 11.3222C6.18782 11.5728 5.73438 11.8203 5.2811 12.0687L4.77657 12.3452C4.64126 12.2161 4.51829 12.0822 4.37876 11.9686C3.95266 11.6211 3.51969 11.2822 3.09063 10.9386C2.71032 10.6341 2.34188 10.3169 2.06001 9.91359C1.85032 9.61359 1.71516 9.28531 1.70219 8.91437C1.68579 8.44172 1.81985 8.00984 2.06048 7.60781C2.36829 7.09344 2.78813 6.68062 3.24969 6.30672C3.73798 5.91141 4.2661 5.57578 4.81344 5.26937C5.57923 4.84078 6.36688 4.46141 7.21141 4.21094C8.07735 3.95406 8.95594 3.80703 9.86219 3.90953C10.2184 3.94984 10.5644 4.03141 10.882 4.20563C11.1253 4.33891 11.3248 4.51344 11.4177 4.78625C11.5092 5.05469 11.5064 5.32672 11.443 5.59937C11.3141 6.15156 11.0117 6.60672 10.6313 7.01344C10.0072 7.68016 9.24594 8.13406 8.38891 8.43391C7.89614 8.60653 7.38345 8.7159 6.86313 8.75938C6.43673 8.79516 6.01923 8.75734 5.61548 8.60906C5.34813 8.51078 5.11532 8.36047 4.92813 8.14234C4.89469 8.10328 4.85188 8.06094 4.78954 8.0975C4.72844 8.13344 4.71766 8.19156 4.73813 8.25047C4.77235 8.34828 4.80391 8.45016 4.85719 8.53766C4.9911 8.75719 5.18641 8.91641 5.40141 9.05297C5.81438 9.31562 6.27594 9.40391 6.75454 9.42438C7.48079 9.45578 8.18938 9.34734 8.88798 9.1525C9.88532 8.87438 10.7525 8.38313 11.448 7.60813C12.027 6.96281 12.4406 6.23453 12.5292 5.35516C12.5725 4.92594 12.5264 4.50547 12.3255 4.11391C12.1075 3.68969 11.7609 3.37422 11.3466 3.15688C10.7431 2.84047 10.0919 2.65625 9.41969 2.65625H8.74626C7.93219 2.65625 7.14516 2.88953 6.38016 3.16781C5.8011 3.37859 5.23329 3.62734 4.68204 3.90266C3.48157 4.5025 2.3636 5.22578 1.44532 6.22031C0.987819 6.71578 0.600475 7.2625 0.377663 7.90625C0.310414 8.09845 0.252482 8.29378 0.204069 8.49156M4.55391 14.1186C4.50188 14.8153 4.1861 15.3802 3.67001 15.8377C3.37969 16.0948 3.04673 16.278 2.65891 16.3423C2.51829 16.3656 2.37438 16.3712 2.23798 16.313C2.04344 16.2298 1.99985 16.0572 1.9961 15.8733C1.99032 15.5802 2.09298 15.3152 2.23376 15.063C2.41751 14.7342 2.68688 14.4836 2.97454 14.2495C3.42766 13.8806 3.91923 13.5684 4.42266 13.2738L4.46063 13.2581C4.53844 13.5456 4.57548 13.8295 4.55391 14.1186ZM8.48485 11.0906C8.44813 11.3131 8.40219 11.5358 8.33719 11.7514C8.11251 12.4978 7.82391 13.2211 7.51188 13.9347C7.45423 14.0667 7.37032 14.1872 7.29735 14.3123C7.28494 14.3316 7.27007 14.3491 7.25313 14.3645C7.16282 14.4537 7.07719 14.4491 7.03157 14.3323C6.97844 14.1967 6.94579 14.0516 6.91766 13.908C6.89876 13.8116 6.90329 13.7103 6.89735 13.6116C6.90344 12.9094 7.11766 12.2713 7.4811 11.6772C7.63094 11.4322 7.79407 11.1988 8.04329 11.0438C8.12082 10.9955 8.2047 10.9584 8.29251 10.9334C8.42532 10.8961 8.50688 10.9575 8.48485 11.0906ZM11.1667 14.5075L12.1306 13.382C12.1708 13.8 11.4603 14.6344 11.1667 14.5075ZM14.2453 13.7502C14.1772 13.7892 14.103 13.8173 14.0331 13.8534C13.9692 13.8866 13.9481 13.8531 13.9463 13.7981C13.9453 13.7601 13.9502 13.7221 13.9608 13.6855C14.0909 13.2264 14.3305 12.8345 14.6869 12.5158L14.7119 12.503C14.8814 12.9772 14.6855 13.498 14.2453 13.7502Z" fill="#B3B3B3"/>
</svg>
