<svg width="20" height="20" viewBox="0 0 20 20" fill="none" xmlns="http://www.w3.org/2000/svg">
<g clip-path="url(#clip0_131_142)">
<path d="M10.0006 4.00031C7.33389 4.00031 5.6678 5.33312 5.00061 7.99984C6.0003 6.66687 7.16733 6.16702 8.5003 6.50031C9.26139 6.68999 9.8053 7.24187 10.4076 7.85343C11.388 8.84827 12.5226 9.99999 15.0006 9.99999C17.6672 9.99999 19.3334 8.66702 20.0006 5.99968C19.0008 7.33343 17.8339 7.83327 16.5008 7.49999C15.7398 7.31015 15.1965 6.75843 14.5934 6.14687C13.6137 5.15202 12.4794 4.00031 10.0006 4.00031ZM5.00061 9.99999C2.33405 9.99999 0.667798 11.333 0.000610352 14.0003C1.0003 12.6666 2.16717 12.1667 3.5003 12.5C4.26139 12.6898 4.8053 13.2416 5.40764 13.8531C6.38795 14.848 7.52264 15.9997 10.0006 15.9997C12.6672 15.9997 14.3334 14.6669 15.0006 12.0001C14.0008 13.3331 12.8339 13.833 11.5008 13.4997C10.7398 13.31 10.1965 12.7581 9.59342 12.1466C8.61373 11.1517 7.47936 9.99999 5.00061 9.99999Z" fill="#B3B3B3"/>
</g>
<defs>
<clipPath id="clip0_131_142">
<rect width="20" height="20" fill="white"/>
</clipPath>
</defs>
</svg>
