<svg width="20" height="20" viewBox="0 0 20 20" fill="none" xmlns="http://www.w3.org/2000/svg">
<path d="M3.43256 7.34399H19.006V18.8549H3.43256V7.34399Z" fill="white"/>
<path d="M0.124756 9.98618V19.7518H19.656V0.220551H0.124756V9.98618ZM15.8638 9.20493C16.3316 9.31348 16.7568 9.55815 17.0857 9.90805C17.2668 10.0966 17.4242 10.3064 17.5544 10.5331C17.5544 10.5581 16.7107 11.1284 16.1966 11.4471C16.1779 11.4596 16.1029 11.3784 16.0201 11.2549C15.9262 11.093 15.7929 10.9575 15.6325 10.861C15.4721 10.7646 15.2899 10.7103 15.1029 10.7034C14.5107 10.6627 14.1294 10.9737 14.1326 11.4846C14.1277 11.6118 14.1568 11.738 14.2169 11.8502C14.3466 12.1205 14.5888 12.2815 15.3482 12.6096C16.7466 13.2112 17.3451 13.608 17.7169 14.1721C18.1326 14.7971 18.2248 15.8065 17.9435 16.5534C17.631 17.3659 16.8654 17.9174 15.7826 18.1002C15.288 18.1569 14.7883 18.1516 14.2951 18.0846C13.5391 17.96 12.8427 17.597 12.3076 17.0487C12.1279 16.8502 11.7779 16.3331 11.7998 16.2956C11.8568 16.2532 11.9169 16.2151 11.9794 16.1815L12.7029 15.7815L13.2638 15.4565L13.381 15.6299C13.5788 15.9128 13.8305 16.1539 14.1216 16.3393C14.7466 16.6674 15.5998 16.6221 16.0216 16.2424C16.1633 16.1033 16.2516 15.9189 16.2713 15.7213C16.291 15.5238 16.2408 15.3255 16.1294 15.1612C15.9732 14.944 15.6607 14.7612 14.7873 14.3799C13.7794 13.9455 13.3451 13.6768 12.9482 13.2487C12.7004 12.9662 12.5175 12.6328 12.4123 12.2721C12.3337 11.86 12.3221 11.4379 12.3779 11.0221C12.5857 10.0487 13.3154 9.36899 14.381 9.16743C14.8745 9.10636 15.3744 9.12006 15.8638 9.20805V9.20493ZM11.2794 10.0237V10.8237H8.74351V18.0471H6.94507V10.8221H4.40288V10.0409C4.39496 9.77145 4.40122 9.50181 4.42163 9.23305C4.43413 9.21899 5.98413 9.21899 7.85913 9.21899H11.2701L11.2794 10.0237Z" fill="#B3B3B3"/>
</svg>
